<?xml version="1.0" standalone="no"?>
<!DOCTYPE svg PUBLIC "-//W3C//DTD SVG 20010904//EN"
 "http://www.w3.org/TR/2001/REC-SVG-20010904/DTD/svg10.dtd">
<svg version="1.0" xmlns="http://www.w3.org/2000/svg"
 width="1018.000000pt" height="387.000000pt" viewBox="0 0 1018.000000 387.000000"
 preserveAspectRatio="xMidYMid meet">

<g transform="translate(0.000000,387.000000) scale(0.100000,-0.100000)"
fill="#000000" stroke="none">
<path d="M1745 3209 c253 -9 6607 -8 6440 2 -71 3 -1592 6 -3380 6 -1787 0
-3164 -4 -3060 -8z"/>
<path d="M2404 2995 c-36 -28 -88 -94 -81 -101 7 -7 45 13 80 42 l28 24 54
-36 c76 -51 90 -39 30 25 -67 71 -75 75 -111 46z"/>
<path d="M9028 2835 c-12 -108 -9 -1643 2 -1623 7 10 9 323 8 855 -2 461 -6
807 -10 768z"/>
<path d="M7555 2822 c-101 -47 -135 -171 -76 -269 19 -30 30 -37 203 -117 69
-33 100 -72 106 -136 6 -61 -15 -93 -74 -116 -53 -20 -119 -14 -173 17 -45 25
-67 55 -91 122 l-19 52 2 -90 2 -90 40 -19 c59 -29 233 -28 291 2 104 53 124
202 39 286 -19 19 -74 56 -122 82 -115 62 -147 86 -163 124 -16 40 1 103 34
125 32 21 104 29 152 16 51 -14 79 -43 103 -112 l20 -54 -2 84 -2 85 -30 8
c-16 4 -68 10 -115 13 -71 5 -92 3 -125 -13z"/>
<path d="M1200 2010 c0 -540 3 -820 10 -820 7 0 10 280 10 820 0 540 -3 820
-10 820 -7 0 -10 -280 -10 -820z"/>
<path d="M1573 2824 c4 -4 17 -12 29 -18 13 -7 26 -25 29 -41 4 -17 7 -152 8
-301 l1 -271 -37 -16 c-37 -15 -36 -15 82 -16 l120 -1 -31 19 c-37 23 -44 49
-44 176 l0 92 94 7 c106 7 147 18 193 52 65 49 81 167 32 239 -38 55 -80 72
-194 78 -79 4 -87 4 -40 -3 127 -18 150 -45 150 -181 0 -136 -26 -164 -153
-164 l-74 0 1 178 2 177 -87 0 c-48 0 -84 -3 -81 -6z"/>
<path d="M2970 2813 c19 -8 38 -20 42 -27 9 -14 8 -569 -1 -584 -4 -7 -25 -18
-46 -26 -39 -14 -38 -15 65 -15 l105 0 -45 17 -45 18 -3 264 c-1 145 1 261 4
257 4 -4 61 -126 128 -273 67 -146 125 -267 131 -267 13 -3 40 55 152 328 52
127 99 234 104 240 10 10 10 -211 0 -424 l-6 -135 -35 -10 c-34 -11 -32 -11
33 -14 37 -2 97 -1 135 0 59 3 63 5 34 12 -18 5 -35 12 -38 17 -8 13 -6 572 2
592 3 10 18 24 33 32 24 14 20 15 -62 12 l-89 -2 -100 -245 c-55 -135 -105
-251 -110 -258 -8 -9 -40 58 -118 245 l-107 258 -99 2 c-97 2 -98 1 -64 -14z"/>
<path d="M3980 2821 c0 -5 11 -11 23 -15 23 -5 24 -10 30 -133 4 -71 7 -206 7
-301 l0 -173 -31 -13 c-52 -22 -14 -26 226 -26 l223 0 15 68 c9 37 19 83 21
102 5 33 4 31 -18 -16 -50 -105 -116 -139 -261 -132 -84 4 -83 0 -84 181 l-1
127 83 0 c95 0 125 -12 148 -58 l17 -33 3 48 c2 26 1 71 -2 98 -3 28 -7 40 -7
28 -1 -12 -14 -31 -28 -42 -23 -18 -41 -21 -122 -21 l-95 0 6 83 c4 45 7 112
7 150 l0 67 63 0 c90 0 159 -23 209 -70 23 -22 42 -39 44 -38 1 2 -9 31 -23
66 l-25 62 -214 0 c-119 0 -214 -4 -214 -9z"/>
<path d="M4735 2820 c3 -5 13 -10 20 -10 33 0 39 -42 43 -318 5 -293 5 -292
-48 -316 -20 -9 26 -12 219 -14 135 -1 248 1 252 5 8 9 39 186 33 192 -2 2 -6
-5 -10 -15 -48 -141 -72 -157 -236 -162 l-118 -4 1 278 c1 154 4 292 8 309 3
16 16 34 29 41 43 21 35 24 -82 24 -76 0 -115 -4 -111 -10z"/>
<path d="M5506 2811 c23 -14 33 -29 37 -57 9 -55 8 -536 -1 -551 -4 -6 -21
-18 -37 -25 -26 -11 0 -13 200 -16 127 -1 239 0 251 3 18 4 23 17 33 82 7 43
15 84 17 91 10 33 -9 5 -35 -52 -40 -88 -62 -98 -213 -104 l-118 -4 1 278 c1
154 4 292 8 309 3 16 16 34 29 41 43 21 34 24 -84 24 l-119 0 31 -19z"/>
<path d="M2416 2760 c-15 -33 -60 -147 -101 -253 -111 -291 -116 -300 -180
-335 -17 -9 -10 -11 36 -12 31 0 78 -3 105 -6 55 -8 53 5 -4 21 -20 6 -38 18
-40 26 -1 9 11 55 29 102 l31 87 119 0 c65 0 119 -1 119 -2 0 -2 16 -46 35
-100 l34 -96 -22 -16 c-20 -14 -14 -15 91 -15 61 -1 112 1 112 4 0 3 -11 10
-25 15 -31 12 -42 33 -170 350 -104 257 -119 290 -135 290 -4 0 -19 -27 -34
-60z m53 -214 c41 -95 55 -139 47 -142 -7 -3 -57 -3 -112 -2 -93 3 -99 4 -96
23 5 29 94 267 98 262 2 -2 30 -65 63 -141z"/>
<path d="M6491 2793 c-7 -16 -53 -135 -102 -266 -112 -300 -120 -315 -170
-336 -21 -9 -39 -19 -39 -22 0 -9 171 -17 194 -9 15 5 10 8 -20 13 -66 11 -67
14 -38 99 38 114 32 110 164 112 l114 1 33 -84 c39 -100 40 -114 11 -129 -18
-8 2 -11 92 -11 l115 -1 -27 23 c-34 28 -41 43 -165 341 -129 312 -137 325
-162 269z m9 -165 c31 -76 80 -208 80 -219 0 -5 -47 -9 -105 -9 -77 0 -105 3
-105 13 0 20 92 267 100 267 4 0 17 -24 30 -52z"/>
<path d="M8076 2224 c-31 -30 -9 -84 34 -84 24 0 50 26 50 50 0 24 -26 50 -50
50 -10 0 -26 -7 -34 -16z"/>
<path d="M5117 1881 c27 -17 32 -27 38 -73 8 -70 2 -544 -7 -554 -4 -4 -25
-10 -45 -14 -26 -5 -2 -8 72 -8 89 0 102 2 70 9 -22 5 -46 17 -52 26 -10 12
-13 82 -13 264 0 136 3 250 8 252 4 3 98 -106 209 -241 112 -136 218 -265 237
-287 l35 -40 1 307 c0 199 4 315 11 331 6 13 23 29 37 34 22 9 11 11 -63 11
-87 0 -89 0 -57 -14 18 -8 37 -26 42 -40 6 -14 10 -122 10 -240 l0 -215 -67
83 c-38 46 -131 161 -208 256 l-139 172 -76 0 -75 0 32 -19z"/>
<path d="M5963 1883 c22 -9 40 -25 43 -37 3 -12 4 -146 2 -298 -3 -299 -5
-308 -59 -308 -16 0 -29 -4 -29 -10 0 -13 147 -13 305 0 105 8 128 14 185 42
78 40 119 94 151 200 50 163 -19 327 -168 399 -39 19 -65 22 -256 25 -203 4
-210 3 -174 -13z m319 -15 c65 -14 117 -54 153 -119 29 -52 30 -58 30 -184 0
-117 -2 -134 -24 -175 -58 -111 -152 -160 -278 -144 l-53 6 0 313 0 314 23 4
c27 5 86 -1 149 -15z"/>
<path d="M2997 1833 c-14 -32 -67 -166 -116 -297 -88 -233 -112 -278 -155
-293 -16 -5 -7 -9 34 -14 85 -11 132 -10 125 1 -3 6 -14 10 -24 10 -9 0 -26 6
-36 14 -18 13 -18 15 5 86 35 109 39 111 172 108 l111 -3 33 -85 c18 -47 33
-90 34 -97 0 -7 -12 -19 -27 -27 -26 -14 -21 -15 87 -15 63 -1 122 4 130 9 12
8 9 10 -11 10 -46 0 -52 11 -206 390 -83 205 -109 260 -122 260 -4 0 -20 -26
-34 -57z m55 -223 l56 -141 -111 3 c-106 3 -112 4 -109 23 5 32 93 255 101
255 4 0 33 -63 63 -140z"/>
<path d="M3530 1881 c0 -6 8 -11 19 -11 43 0 46 -18 49 -325 l3 -292 -38 -15
c-37 -16 -36 -16 82 -16 112 0 118 1 88 14 l-33 14 0 151 0 152 37 -6 c59 -10
84 -36 148 -157 33 -62 72 -122 86 -133 18 -13 49 -21 95 -24 l69 -5 -35 24
c-36 24 -68 69 -130 179 -25 44 -48 70 -80 90 -27 18 -38 29 -27 29 25 0 115
47 143 75 20 21 24 34 24 90 0 81 -16 113 -70 144 -39 22 -56 24 -236 29 -142
4 -194 2 -194 -7z m333 -23 c36 -14 58 -57 64 -127 6 -72 -13 -132 -48 -148
-15 -7 -61 -16 -103 -20 l-77 -6 3 154 3 154 30 6 c36 7 90 1 128 -13z"/>
<path d="M4607 1869 c-9 -13 -55 -123 -102 -244 -150 -384 -135 -353 -179
-373 l-39 -17 59 -6 c32 -4 79 -7 104 -7 l45 -1 -45 17 c-25 10 -46 25 -48 33
-1 9 10 51 26 95 l29 79 123 0 124 0 33 -85 c17 -47 32 -91 32 -98 1 -7 -11
-18 -26 -25 -25 -11 -15 -12 80 -15 116 -3 169 9 107 25 -34 9 -36 13 -117
214 -123 301 -163 395 -177 415 -12 16 -14 16 -29 -7z m-16 -397 c-57 -1 -108
1 -112 5 -6 7 76 241 97 274 3 6 32 -54 63 -133 l57 -143 -105 -3z"/>
<path d="M6992 1870 c-16 -26 -76 -178 -142 -360 -67 -184 -93 -236 -131 -259
l-31 -19 92 -7 c50 -4 93 -5 96 -2 3 2 -16 10 -41 16 -25 6 -45 17 -44 24 0 6
13 50 28 97 l27 85 123 0 124 0 33 -85 c18 -47 33 -91 34 -97 0 -7 -15 -19
-32 -27 -31 -13 -26 -14 87 -15 66 0 127 4 135 9 12 8 9 10 -12 10 -18 0 -33
8 -43 24 -20 30 -109 235 -196 451 -37 94 -74 171 -81 173 -7 1 -19 -7 -26
-18z m41 -262 l55 -138 -119 0 -119 0 21 53 c75 194 93 237 100 230 4 -5 32
-70 62 -145z"/>
<path d="M2370 810 c-956 -5 -844 -6 1315 -14 1298 -5 2502 -6 2675 -3 173 4
765 8 1315 9 l1000 2 -1185 7 c-1330 7 -3550 7 -5120 -1z"/>
<path d="M5020 491 c-17 -33 -12 -46 10 -26 21 19 27 45 10 45 -5 0 -14 -9
-20 -19z"/>
<path d="M3540 331 c0 -63 4 -112 10 -116 6 -4 10 5 10 20 0 27 4 30 63 40 21
3 47 15 58 26 20 20 25 69 9 99 -12 22 -61 40 -111 40 l-39 0 0 -109z m120 59
c39 -39 13 -80 -54 -87 l-46 -6 0 57 0 56 40 0 c27 0 47 -7 60 -20z"/>
<path d="M3950 433 c-23 -8 -40 -34 -40 -60 0 -16 13 -32 43 -53 98 -68 90
-60 71 -81 -12 -13 -31 -19 -63 -19 -33 0 -42 -3 -31 -10 37 -24 118 -7 126
25 10 40 -5 63 -59 92 -35 19 -53 35 -55 50 -5 32 29 47 75 34 43 -12 56 -5
29 15 -20 14 -67 17 -96 7z"/>
<path d="M4285 428 c-10 -25 -1 -223 10 -223 13 0 19 215 6 228 -7 7 -12 5
-16 -5z"/>
<path d="M4588 424 c-75 -40 -77 -178 -3 -212 28 -13 74 -16 99 -6 30 12 16
22 -24 17 -34 -5 -43 -2 -70 25 -36 37 -40 81 -10 130 18 29 24 32 71 32 45 0
50 2 39 15 -16 19 -67 19 -102 -1z"/>
<path d="M4963 424 c-60 -30 -79 -118 -38 -181 32 -48 107 -57 154 -17 57 48
51 156 -12 194 -38 24 -62 25 -104 4z m86 -24 c46 -24 51 -113 9 -157 -39 -42
-97 -21 -118 43 -27 82 39 152 109 114z"/>
<path d="M5346 433 c-3 -3 -6 -58 -6 -120 l0 -114 73 3 c85 4 93 22 12 26
l-55 3 0 99 c0 91 -7 120 -24 103z"/>
<path d="M5733 424 c-82 -41 -79 -183 5 -215 39 -15 104 -4 124 21 40 49 31
155 -15 185 -36 23 -79 27 -114 9z m82 -20 c22 -9 45 -56 45 -93 0 -36 -44
-91 -72 -91 -11 0 -33 9 -49 21 -26 18 -29 26 -29 75 0 77 41 112 105 88z"/>
<path d="M6154 421 c-51 -31 -68 -104 -39 -166 19 -39 51 -55 108 -55 55 0 67
13 67 71 0 45 -1 46 -27 42 -50 -8 -60 -16 -28 -22 58 -12 40 -71 -22 -71 -70
0 -105 78 -68 149 16 32 39 40 105 41 44 1 44 1 20 15 -35 20 -79 18 -116 -4z"/>
<path d="M6560 420 c-22 -41 -80 -213 -75 -219 4 -3 19 9 33 27 22 26 34 32
67 32 33 0 45 -6 67 -32 14 -18 29 -30 32 -27 4 3 -7 42 -23 85 -56 153 -77
180 -101 134z m48 -78 c23 -59 18 -66 -35 -60 -22 2 -28 8 -26 26 3 27 32 97
37 91 2 -2 13 -28 24 -57z"/>
</g>
</svg>
