<?xml version="1.0" standalone="no"?>
<!DOCTYPE svg PUBLIC "-//W3C//DTD SVG 20010904//EN"
 "http://www.w3.org/TR/2001/REC-SVG-20010904/DTD/svg10.dtd">
<svg version="1.0" xmlns="http://www.w3.org/2000/svg"
 width="3840.000000pt" height="2146.000000pt" viewBox="0 0 3840.000000 2146.000000"
 preserveAspectRatio="xMidYMid meet">

<g transform="translate(0.000000,2146.000000) scale(0.100000,-0.100000)"
fill="#000000" stroke="none">
<path d="M27590 19357 c-3 -3 -1434 -8 -3180 -11 -4972 -11 -9523 -25 -10960
-36 -723 -5 -1679 -12 -2125 -15 -445 -3 -1575 -12 -2510 -20 -935 -8 -2501
-19 -3480 -25 -1590 -10 -1806 -13 -2020 -30 -277 -22 -338 -34 -343 -67 -3
-17 4 -26 25 -34 20 -8 798 -10 2913 -5 1587 3 3099 8 3360 11 261 3 2358 8
4660 11 2302 4 4201 8 4220 10 19 2 427 4 905 4 479 1 1502 6 2275 10 773 5
3151 14 5285 19 2134 6 4263 13 4730 16 468 3 1262 7 1765 10 1152 6 1641 13
2095 26 326 10 366 13 419 33 33 11 61 26 63 33 13 37 0 38 -1342 44 -2331 11
-6750 22 -6755 16z"/>
<path d="M9155 17690 c-71 -7 -129 -35 -180 -87 -35 -37 -135 -202 -135 -223
0 -6 -8 -30 -19 -53 -24 -54 -35 -141 -21 -167 8 -14 21 -20 45 -20 30 0 48
12 125 86 80 75 169 134 206 134 24 0 135 -40 161 -58 88 -60 229 -142 306
-177 42 -20 68 -25 135 -25 72 0 89 4 131 28 116 66 188 164 266 361 42 109
30 191 -30 191 -25 0 -42 -11 -83 -52 -28 -29 -61 -65 -72 -81 -25 -32 -89
-65 -141 -73 -51 -9 -135 22 -272 100 -176 99 -282 129 -422 116z"/>
<path d="M36842 17259 c-8 -12 -17 -83 -24 -177 -13 -210 -1 -7985 13 -8127
10 -100 31 -157 51 -137 24 24 36 306 58 1367 23 1064 16 6333 -8 6755 -17
291 -45 391 -90 319z"/>
<path d="M33015 16920 c-33 -4 -71 -12 -85 -17 -14 -6 -47 -14 -75 -18 -195
-28 -497 -273 -635 -513 -63 -110 -75 -175 -75 -407 0 -221 10 -276 78 -415
53 -108 247 -286 402 -369 22 -12 47 -26 55 -31 8 -5 83 -47 165 -92 83 -45
152 -84 155 -87 3 -3 37 -22 75 -42 39 -20 93 -49 120 -65 28 -15 64 -35 80
-43 66 -36 203 -131 254 -176 92 -84 171 -211 186 -300 4 -22 10 -51 13 -65
11 -42 7 -231 -7 -304 -39 -205 -187 -370 -381 -427 -247 -72 -516 3 -727 201
-134 126 -282 363 -382 613 -38 93 -102 130 -125 72 -8 -21 -8 -847 0 -879 11
-46 113 -99 259 -135 39 -10 79 -22 90 -28 11 -6 55 -13 97 -17 43 -4 97 -14
120 -23 35 -13 96 -17 313 -20 343 -6 497 11 623 68 23 10 48 19 54 19 18 0
107 59 173 114 225 189 334 341 420 581 39 111 41 353 4 448 -11 26 -19 55
-19 65 -1 18 -52 121 -112 224 -60 104 -176 212 -327 303 -9 6 -30 20 -46 31
-30 21 -127 77 -260 149 -38 21 -88 49 -110 62 -22 12 -58 32 -80 43 -22 12
-56 31 -77 43 -62 38 -189 111 -238 137 -77 42 -191 122 -237 168 -110 111
-158 328 -118 537 21 114 80 224 155 293 77 70 229 126 340 124 80 -1 202 -32
281 -72 190 -96 383 -323 509 -600 56 -123 82 -156 113 -144 24 9 28 60 22
300 -4 165 -11 255 -26 327 -10 54 -19 122 -19 150 0 64 -26 119 -60 128 -14
4 -43 7 -65 8 -22 1 -62 9 -90 20 -27 10 -98 23 -156 29 -58 6 -119 17 -135
23 -35 14 -399 21 -489 9z"/>
<path d="M28249 16887 c-36 -24 -97 -120 -129 -202 -10 -27 -35 -88 -55 -135
-20 -47 -41 -101 -47 -120 -6 -19 -15 -44 -21 -55 -10 -18 -64 -168 -104 -285
-26 -77 -54 -153 -73 -195 -9 -22 -21 -56 -25 -75 -4 -19 -13 -44 -20 -56 -7
-11 -20 -43 -29 -70 -30 -95 -56 -167 -65 -178 -5 -6 -16 -33 -24 -61 -9 -27
-27 -81 -42 -120 -32 -85 -71 -195 -91 -254 -8 -25 -21 -55 -29 -68 -8 -12
-15 -31 -15 -42 0 -11 -8 -35 -19 -54 -10 -18 -22 -49 -26 -68 -4 -19 -13 -45
-21 -59 -14 -25 -42 -104 -71 -195 -8 -27 -19 -54 -23 -60 -4 -5 -13 -28 -20
-50 -6 -22 -20 -59 -31 -82 -10 -24 -19 -51 -19 -61 0 -10 -6 -26 -14 -37 -7
-11 -17 -31 -21 -45 -21 -71 -148 -346 -225 -487 -25 -45 -95 -135 -136 -175
-36 -34 -165 -108 -189 -108 -20 0 -85 -61 -85 -80 0 -11 9 -24 20 -30 25 -13
965 -9 993 4 25 12 32 52 14 80 -12 18 -28 24 -69 29 -67 6 -115 35 -164 94
-61 75 -67 191 -18 357 13 44 24 88 24 98 0 11 7 33 16 50 9 17 22 51 29 77
20 67 62 186 73 207 13 24 42 111 49 146 3 15 10 31 17 36 6 6 118 6 271 1
143 -4 392 -11 554 -13 221 -4 298 -9 307 -18 7 -7 19 -38 27 -68 18 -63 53
-166 68 -195 5 -11 16 -42 24 -70 7 -27 21 -72 30 -100 10 -27 22 -63 27 -80
6 -16 18 -57 29 -90 10 -33 25 -80 32 -105 22 -69 40 -161 41 -204 0 -34 -6
-45 -43 -77 -23 -21 -56 -41 -74 -44 -34 -7 -97 -60 -97 -81 0 -7 7 -19 15
-28 13 -13 96 -15 615 -16 407 0 607 3 620 10 47 25 20 59 -90 112 -46 22 -95
53 -139 85 -43 32 -161 146 -161 156 0 5 -12 37 -26 71 -14 33 -37 88 -51 121
-14 33 -33 78 -43 100 -10 22 -22 51 -25 65 -4 14 -12 30 -17 37 -9 11 -18 33
-73 178 -13 33 -33 85 -45 115 -12 30 -33 82 -45 115 -49 128 -66 171 -80 200
-7 17 -27 68 -45 115 -17 47 -35 94 -40 105 -26 59 -70 179 -70 193 0 9 -9 28
-20 42 -11 14 -20 34 -20 45 0 11 -11 44 -25 73 -14 30 -25 59 -25 66 0 6 -9
28 -20 49 -11 20 -20 43 -20 50 0 8 -11 35 -25 61 -14 26 -25 56 -25 66 0 10
-11 40 -25 66 -14 26 -25 54 -25 63 0 9 -9 30 -20 46 -11 17 -20 39 -20 50 0
11 -11 43 -25 70 -13 28 -25 57 -25 65 0 8 -9 32 -20 53 -11 20 -20 42 -20 49
0 6 -9 30 -19 52 -11 23 -26 59 -34 81 -21 57 -61 162 -85 220 -133 332 -188
455 -214 478 -27 23 -58 22 -99 -6z m-107 -812 c5 -16 13 -55 19 -85 6 -30 15
-60 20 -66 9 -11 18 -34 69 -179 11 -33 27 -73 35 -90 7 -16 20 -50 28 -75 9
-25 27 -76 42 -115 14 -38 35 -92 45 -120 10 -27 30 -81 45 -120 14 -38 34
-92 42 -120 9 -27 22 -59 28 -70 7 -11 16 -35 20 -54 4 -19 18 -55 32 -80 13
-25 22 -55 21 -66 -3 -18 -11 -20 -103 -21 -55 -1 -185 -4 -290 -7 -262 -9
-492 -10 -504 -2 -6 3 -11 14 -11 23 0 18 50 185 81 267 10 28 21 64 24 80 4
17 14 50 24 75 10 25 23 63 29 85 11 41 35 118 54 170 5 17 19 55 29 85 11 30
23 64 28 75 5 11 16 40 24 65 8 25 29 83 47 130 18 47 35 99 39 115 3 17 15
54 26 83 22 59 43 65 57 17z"/>
<path d="M23416 16834 c-9 -8 -16 -22 -16 -31 0 -28 119 -123 155 -123 19 0
106 -71 139 -114 27 -36 28 -44 37 -189 5 -84 11 -181 14 -217 22 -255 34
-1813 15 -2075 -17 -235 -36 -389 -53 -422 -10 -18 -17 -38 -17 -45 0 -27 -54
-74 -127 -113 -86 -45 -124 -85 -107 -113 10 -16 90 -17 1198 -20 745 -1 1194
1 1205 8 14 7 20 27 25 90 3 44 11 91 16 106 6 14 15 78 20 142 6 64 15 133
20 152 5 19 14 76 20 125 6 50 20 143 32 208 25 134 21 150 -34 155 -51 4 -81
-32 -169 -207 -93 -185 -162 -287 -254 -377 -103 -101 -244 -173 -390 -201
-172 -32 -211 -36 -401 -37 l-201 -1 -55 29 c-67 35 -80 56 -108 169 -26 110
-37 293 -45 787 -4 206 -8 377 -10 380 -1 3 -4 271 -6 595 -4 626 5 989 26
1041 23 56 167 167 258 197 23 8 22 53 -1 66 -11 6 -214 11 -488 14 -280 2
-485 8 -509 14 -22 6 -70 14 -107 17 -53 5 -69 3 -82 -10z"/>
<path d="M9465 16821 c-11 -5 -28 -17 -37 -27 -14 -16 -70 -129 -98 -199 -5
-11 -22 -51 -39 -89 -17 -37 -31 -73 -31 -78 0 -6 -6 -24 -14 -41 -8 -18 -19
-48 -25 -67 -6 -19 -24 -73 -41 -120 -17 -47 -37 -103 -45 -125 -7 -22 -34
-96 -58 -165 -25 -69 -55 -152 -67 -185 -11 -33 -25 -69 -30 -80 -5 -11 -26
-67 -46 -125 -20 -58 -57 -161 -82 -230 -24 -69 -55 -155 -68 -191 -12 -37
-27 -75 -32 -85 -10 -21 -39 -104 -52 -149 -4 -16 -17 -52 -28 -80 -11 -27
-29 -75 -40 -105 -10 -30 -32 -89 -47 -130 -15 -41 -35 -97 -45 -125 -44 -124
-74 -203 -91 -241 -10 -23 -19 -47 -19 -54 0 -7 -11 -36 -24 -64 -13 -28 -35
-76 -49 -106 -61 -135 -102 -214 -147 -282 -50 -77 -134 -161 -185 -185 -16
-7 -37 -18 -45 -23 -8 -5 -31 -17 -50 -25 -33 -15 -76 -36 -110 -54 -27 -15
-24 -50 6 -61 30 -12 633 -11 873 0 141 7 145 8 168 34 13 15 23 31 23 37 0
18 -40 49 -64 49 -39 0 -187 51 -207 71 -34 34 -42 94 -32 234 7 87 15 141 27
163 9 18 20 56 23 85 3 29 12 64 20 80 7 15 18 50 23 78 5 28 16 65 24 82 13
29 24 64 55 182 6 22 13 53 16 68 l6 28 172 -5 c95 -3 352 -8 572 -12 378 -6
401 -8 422 -26 11 -11 24 -36 28 -55 3 -20 15 -52 26 -72 10 -20 19 -43 19
-51 0 -8 12 -37 25 -65 14 -27 25 -59 25 -70 0 -11 8 -36 19 -55 10 -19 22
-55 26 -80 4 -25 11 -50 15 -55 5 -6 18 -44 29 -86 11 -41 24 -87 30 -100 12
-33 25 -240 17 -273 -7 -30 -45 -52 -114 -67 -48 -10 -83 -36 -95 -71 -15 -42
-4 -43 629 -46 623 -4 644 -2 644 36 0 23 -57 77 -90 87 -73 22 -150 74 -227
151 -44 45 -84 93 -88 106 -4 12 -24 59 -46 103 -21 44 -52 114 -69 155 -17
41 -39 92 -50 112 -11 20 -20 42 -20 49 0 6 -9 30 -19 53 -38 80 -71 159 -71
168 0 5 -11 34 -25 64 -14 30 -25 60 -25 67 0 7 -9 27 -20 45 -11 18 -20 40
-20 50 0 9 -11 38 -25 64 -14 26 -25 53 -25 59 0 7 -8 31 -19 53 -22 49 -85
207 -116 291 -12 33 -26 69 -32 80 -16 31 -54 127 -63 160 -4 17 -25 68 -45
115 -20 47 -41 101 -47 120 -6 19 -16 46 -24 60 -8 14 -20 43 -28 65 -8 22
-23 63 -34 90 -11 28 -30 75 -41 105 -12 30 -26 64 -31 75 -12 26 -47 116 -70
180 -10 28 -25 64 -34 80 -9 17 -16 35 -16 41 0 10 -28 80 -65 159 -7 17 -28
64 -45 105 -17 41 -39 93 -50 115 -10 22 -31 69 -46 105 -31 74 -48 96 -86
116 -30 15 -62 17 -93 5z m-90 -773 c12 -57 52 -192 68 -228 9 -19 25 -62 37
-95 26 -71 77 -198 96 -240 13 -30 29 -72 65 -175 11 -30 35 -93 54 -140 18
-47 50 -128 70 -180 20 -52 50 -123 67 -157 16 -35 28 -69 25 -76 -4 -11 -78
-13 -419 -10 -227 2 -445 0 -485 -4 -64 -8 -72 -7 -76 8 -3 10 3 30 12 46 21
37 71 169 106 283 8 25 28 83 45 130 17 47 37 105 44 130 8 25 21 59 30 75 9
17 16 41 16 55 0 14 6 35 14 46 8 11 21 45 30 74 21 76 54 171 67 194 13 22
46 132 60 196 14 69 29 100 49 100 13 0 21 -10 25 -32z"/>
<path d="M16872 16801 c-128 -5 -145 -8 -158 -26 -8 -11 -12 -26 -9 -33 3 -8
5 -18 5 -23 0 -13 95 -59 122 -59 13 0 46 -11 74 -24 72 -34 93 -74 111 -211
7 -60 19 -144 24 -185 14 -95 21 -2198 9 -2325 -23 -228 -30 -274 -50 -327
-24 -64 -54 -89 -133 -109 -69 -17 -84 -57 -34 -88 39 -25 228 -31 1309 -37
1191 -8 1100 -13 1113 68 3 24 13 66 20 93 8 28 19 102 25 165 7 63 18 158 26
210 8 52 14 143 14 202 0 106 0 108 -25 114 -60 15 -81 -10 -225 -270 -36 -65
-107 -152 -169 -207 -114 -100 -209 -139 -426 -175 -146 -23 -178 -25 -360
-21 -118 3 -218 10 -244 17 -56 17 -161 114 -190 175 -33 70 -41 191 -47 680
-3 248 -9 479 -14 515 -5 45 -4 69 4 79 9 12 55 13 276 7 146 -3 283 -10 305
-15 22 -5 67 -15 100 -22 67 -14 130 -53 167 -101 14 -18 46 -87 72 -153 26
-66 55 -126 64 -133 29 -22 74 -11 95 25 16 27 19 61 24 230 3 109 1 295 -5
414 -11 228 -21 277 -62 299 -44 24 -65 6 -120 -102 -96 -190 -127 -215 -297
-247 -89 -17 -176 -24 -350 -29 -128 -4 -241 -5 -252 -2 -19 5 -19 23 -26 700
-8 800 -8 731 2 740 4 4 148 3 318 -1 250 -6 329 -11 405 -27 176 -37 284
-106 372 -239 73 -110 138 -223 189 -323 27 -55 86 -117 115 -123 47 -9 64 21
64 111 0 65 -15 186 -34 282 -3 14 -10 72 -16 130 -5 58 -17 141 -25 185 -8
44 -17 102 -20 128 -5 37 -11 50 -28 56 -26 10 -1892 20 -2105 12z"/>
<path d="M20180 16801 c-47 -9 -60 -18 -60 -40 0 -25 12 -33 99 -70 95 -40
240 -138 246 -166 10 -49 27 -2082 19 -2335 -5 -151 -9 -279 -9 -285 -1 -5 -5
-35 -8 -65 -4 -30 -9 -92 -11 -137 -3 -71 -7 -87 -31 -118 -47 -62 -97 -92
-169 -100 -68 -7 -93 -23 -98 -64 -2 -15 6 -30 22 -42 24 -18 56 -19 780 -19
1633 -1 1587 -1 1603 15 8 8 18 43 22 77 4 35 12 71 17 81 5 10 14 73 19 140
5 67 15 143 23 168 8 26 18 89 22 140 4 52 13 112 21 134 8 22 17 81 20 131 6
88 5 92 -17 104 -19 10 -27 9 -49 -7 -31 -24 -85 -99 -96 -134 -4 -13 -16 -36
-26 -51 -11 -14 -19 -33 -19 -41 0 -8 -9 -25 -19 -39 -11 -13 -23 -36 -26 -51
-4 -14 -15 -33 -26 -43 -10 -9 -19 -21 -19 -26 0 -12 -28 -49 -97 -129 -48
-56 -173 -159 -192 -159 -5 0 -19 -9 -33 -19 -13 -11 -42 -24 -63 -30 -22 -6
-49 -17 -61 -25 -11 -8 -45 -18 -75 -21 -30 -4 -79 -14 -109 -23 -43 -13 -105
-16 -285 -17 -220 0 -232 1 -273 23 -24 13 -53 40 -69 65 -27 42 -30 57 -65
327 -19 142 -18 2044 1 2388 l14 254 51 37 c28 20 66 43 84 51 18 7 45 29 60
48 l26 34 -21 18 c-18 14 -57 18 -294 23 -335 9 -782 7 -829 -2z"/>
<path d="M11873 16779 c-23 -11 -44 -27 -47 -35 -8 -22 10 -52 36 -59 13 -3
46 -17 73 -30 120 -56 142 -65 149 -65 4 0 23 -12 43 -27 40 -32 103 -151 103
-198 0 -16 6 -66 14 -111 19 -120 21 -184 21 -724 0 -635 -19 -1429 -36 -1528
-6 -31 -16 -102 -23 -157 -21 -167 -73 -289 -143 -341 -16 -12 -62 -37 -103
-56 -103 -49 -115 -59 -106 -92 l7 -28 482 4 c442 3 485 4 510 21 32 21 37 65
9 90 -9 9 -50 23 -90 31 -135 28 -218 93 -247 193 -16 55 -21 149 -36 603 -15
434 -27 1730 -16 1753 4 9 12 17 17 17 9 0 70 -113 70 -131 0 -9 20 -58 70
-164 10 -22 30 -67 45 -100 15 -33 35 -78 45 -100 38 -80 70 -154 70 -159 0
-3 20 -48 45 -100 25 -53 45 -100 45 -106 0 -5 11 -31 25 -57 13 -27 36 -75
51 -108 56 -128 95 -218 128 -295 48 -112 62 -143 89 -200 14 -30 48 -109 77
-175 77 -178 90 -207 105 -240 7 -16 30 -68 50 -115 121 -278 286 -618 321
-660 32 -37 66 -39 99 -6 29 29 106 186 165 336 23 58 51 128 62 155 11 28 27
68 35 89 8 22 23 59 34 82 10 24 19 49 19 56 0 7 7 27 16 43 8 17 24 53 33 80
24 66 87 219 112 271 10 23 19 46 19 52 0 6 9 31 19 54 10 24 29 68 42 98 12
30 30 73 40 95 10 22 25 60 34 85 40 108 52 137 68 167 9 18 17 40 17 50 0 10
9 32 20 48 11 17 20 37 20 45 0 8 11 38 25 65 13 28 25 57 25 65 0 8 9 30 20
48 11 18 20 38 20 45 0 6 11 35 25 62 13 28 25 56 25 62 0 12 20 59 66 159 13
28 24 57 24 65 0 8 9 28 20 44 11 17 20 37 20 45 0 8 7 29 16 45 8 17 29 66
46 110 16 44 34 90 39 103 9 24 34 30 42 9 5 -12 12 -740 12 -1212 0 -636 -10
-1298 -20 -1311 -5 -8 -30 -18 -55 -23 -80 -17 -204 -58 -242 -80 -45 -27 -58
-59 -32 -78 16 -12 128 -14 666 -11 604 3 648 4 665 21 32 32 1 65 -117 124
-110 54 -181 107 -204 152 -7 14 -16 76 -20 136 -4 61 -14 169 -21 240 -16
149 -30 397 -45 835 -6 168 -16 418 -22 555 -17 377 -16 944 1 1029 20 97 61
140 197 206 57 28 109 50 117 50 22 0 57 30 57 50 0 10 -7 26 -16 34 -14 14
-67 16 -439 16 -233 0 -431 -3 -440 -6 -17 -7 -42 -56 -75 -149 -10 -27 -30
-81 -45 -120 -15 -38 -35 -94 -45 -123 -11 -29 -23 -58 -27 -65 -7 -11 -17
-36 -57 -147 -9 -25 -23 -59 -31 -77 -8 -17 -15 -36 -15 -43 0 -6 -8 -25 -17
-43 -9 -18 -25 -52 -34 -77 -27 -74 -65 -171 -89 -230 -12 -30 -29 -73 -37
-95 -8 -22 -23 -58 -34 -81 -10 -22 -19 -47 -19 -55 0 -8 -9 -27 -20 -44 -11
-16 -20 -36 -20 -44 0 -8 -9 -33 -19 -55 -11 -23 -27 -60 -35 -83 -9 -24 -23
-62 -32 -85 -8 -24 -24 -61 -35 -84 -10 -22 -19 -46 -19 -52 0 -6 -9 -26 -20
-44 -11 -18 -20 -40 -20 -48 0 -8 -9 -32 -20 -53 -11 -20 -20 -43 -20 -49 0
-7 -11 -35 -24 -63 -32 -69 -106 -253 -115 -290 -5 -16 -18 -48 -29 -70 -12
-22 -22 -47 -22 -55 0 -8 -9 -28 -20 -45 -11 -16 -20 -38 -20 -47 0 -10 -9
-37 -19 -60 -11 -24 -22 -55 -25 -70 -4 -15 -14 -34 -23 -44 -16 -15 -18 -15
-35 6 -10 12 -18 30 -18 38 0 21 -32 101 -87 219 -24 51 -43 95 -43 99 0 3
-14 35 -31 72 -17 37 -41 87 -52 112 -11 25 -31 70 -44 100 -50 109 -66 146
-83 185 -10 22 -30 67 -45 100 -32 69 -55 119 -85 190 -12 28 -33 73 -46 101
-13 28 -24 54 -24 58 0 4 -14 37 -31 74 -17 37 -37 81 -44 97 -21 46 -57 129
-114 256 -28 63 -51 123 -51 131 0 9 -7 21 -15 28 -8 7 -15 17 -15 22 0 11
-54 137 -120 283 -10 22 -30 69 -45 105 -14 36 -35 83 -44 105 -10 22 -33 74
-50 115 -65 152 -74 168 -95 178 -12 6 -130 14 -266 17 -135 3 -315 8 -400 10
-142 4 -159 3 -197 -16z"/>
<path d="M5505 16779 c-55 -4 -219 -12 -365 -18 -375 -16 -387 -18 -406 -46
-24 -37 -9 -62 65 -110 63 -41 102 -81 129 -130 12 -23 40 -385 47 -620 3 -88
7 -191 10 -230 2 -38 7 -144 10 -235 3 -91 8 -192 10 -225 8 -92 8 -1285 1
-1325 -3 -19 -10 -84 -15 -144 l-8 -109 -44 -42 c-52 -49 -192 -124 -284 -151
-38 -12 -46 -47 -14 -65 18 -9 172 -11 659 -6 349 3 643 8 652 12 48 19 19 89
-45 105 -23 5 -60 19 -82 29 -22 11 -51 22 -65 25 -14 3 -45 25 -68 49 l-44
45 -13 118 c-17 149 -23 266 -35 674 -12 366 -13 356 58 339 110 -25 626 7
717 46 19 7 51 16 71 20 60 9 222 85 309 143 230 155 388 391 480 712 22 74
25 106 25 241 0 135 -3 163 -20 200 -11 24 -20 55 -20 69 0 29 -52 144 -94
210 -66 103 -202 229 -311 288 -53 29 -134 62 -152 62 -10 0 -53 9 -94 19 -41
11 -121 22 -179 25 -58 4 -168 11 -245 16 -174 13 -507 17 -640 9z m450 -215
c72 -8 157 -17 190 -21 33 -3 76 -14 95 -23 19 -9 46 -21 59 -27 67 -26 210
-184 265 -290 27 -53 54 -190 67 -332 16 -188 10 -261 -41 -471 -48 -200 -178
-368 -349 -450 -109 -53 -407 -96 -496 -71 -66 18 -101 60 -119 144 -32 150
-36 228 -42 822 -3 336 -9 635 -14 665 -12 85 -15 83 129 75 69 -3 185 -13
256 -21z"/>
<path d="M2008 16508 c-16 -28 -16 -339 -1 -3318 6 -1180 16 -2314 22 -2520 6
-206 15 -577 21 -825 26 -1141 31 -1331 40 -1490 13 -224 36 -343 61 -318 28
28 37 649 18 1268 -7 206 -12 1114 -13 2205 -1 1159 -6 1992 -14 2220 -10 340
-16 577 -43 1905 -11 545 -28 855 -49 880 -17 21 -27 19 -42 -7z"/>
<path d="M34730 13971 c-80 -20 -152 -85 -212 -191 -27 -47 -32 -65 -32 -125
-1 -66 1 -73 40 -130 49 -70 59 -81 138 -141 69 -52 86 -58 169 -52 89 5 167
61 250 178 31 44 32 48 31 150 0 103 -1 106 -36 160 -47 72 -70 93 -148 129
-65 31 -135 39 -200 22z"/>
<path d="M29224 11583 c-41 -45 -75 -103 -115 -198 -16 -38 -36 -83 -44 -100
-29 -63 -75 -174 -75 -182 0 -4 -8 -24 -19 -43 -10 -19 -22 -54 -26 -77 -4
-24 -11 -45 -16 -48 -4 -3 -15 -27 -23 -53 -8 -26 -27 -78 -42 -117 -14 -38
-33 -90 -41 -115 -8 -25 -23 -65 -33 -90 -10 -25 -30 -79 -45 -120 -15 -41
-35 -94 -46 -118 -10 -23 -19 -50 -19 -60 0 -9 -7 -30 -16 -47 -9 -16 -24 -52
-34 -80 -22 -63 -37 -104 -67 -182 -13 -34 -23 -66 -23 -72 0 -6 -9 -28 -20
-48 -11 -21 -20 -45 -20 -53 0 -8 -11 -37 -25 -65 -13 -27 -25 -59 -25 -70 0
-11 -9 -35 -20 -53 -11 -18 -20 -40 -20 -49 0 -9 -9 -35 -19 -57 -10 -23 -26
-61 -34 -86 -9 -25 -27 -74 -41 -110 -13 -36 -30 -81 -36 -100 -16 -43 -44
-114 -124 -310 -15 -36 -36 -87 -48 -115 -57 -142 -139 -266 -243 -371 -88
-89 -123 -111 -205 -128 -41 -8 -58 -17 -69 -37 -18 -32 -9 -70 21 -88 30 -19
541 -27 817 -13 194 9 195 10 218 36 46 54 17 96 -76 107 -108 12 -200 78
-242 173 -18 41 -18 44 1 122 10 43 21 99 23 124 3 25 13 63 23 85 9 22 22 65
29 95 7 30 18 71 25 90 7 19 24 67 38 105 13 39 32 93 42 120 11 28 21 65 24
83 9 66 -26 62 582 62 537 0 554 -1 564 -19 5 -11 10 -29 10 -41 0 -20 12 -55
61 -170 10 -25 23 -65 30 -90 6 -25 17 -54 24 -65 7 -12 15 -37 18 -55 3 -19
14 -62 25 -95 54 -166 63 -207 74 -332 10 -123 10 -134 -7 -153 -20 -22 -58
-35 -129 -45 -81 -11 -121 -69 -75 -111 20 -18 48 -19 651 -22 559 -3 633 -1
654 13 51 33 14 83 -101 135 -38 17 -107 56 -152 86 -89 60 -87 58 -190 284
-14 30 -33 72 -44 92 -10 20 -19 43 -19 50 0 7 -8 29 -19 48 -10 19 -22 46
-26 60 -4 14 -17 48 -30 75 -12 28 -32 75 -45 105 -12 30 -33 78 -46 106 -13
28 -24 55 -24 59 0 4 -9 26 -20 49 -30 63 -140 335 -156 386 -8 25 -21 59 -29
77 -8 17 -15 34 -15 38 0 3 -11 30 -24 58 -33 70 -76 178 -76 190 0 5 -9 28
-19 51 -40 83 -71 159 -71 169 0 6 -9 29 -19 51 -18 37 -55 133 -128 326 -47
125 -62 166 -93 245 -17 44 -36 95 -42 114 -5 19 -16 44 -23 55 -7 12 -16 35
-20 51 -3 17 -13 44 -20 60 -18 40 -61 154 -70 185 -16 55 -96 209 -124 238
-23 26 -37 32 -71 32 -35 0 -46 -6 -76 -37z m-71 -803 c10 -41 22 -94 27 -117
5 -24 16 -55 23 -70 8 -16 18 -44 22 -63 4 -19 16 -52 26 -72 11 -21 19 -45
19 -54 0 -9 11 -42 24 -73 13 -31 35 -87 49 -126 31 -85 91 -243 141 -375 8
-19 27 -69 42 -110 16 -41 37 -90 47 -108 31 -53 23 -58 -115 -65 -209 -12
-809 -10 -821 2 -7 7 -6 16 5 28 25 30 97 218 153 403 8 25 39 117 70 205 31
88 62 178 70 200 7 22 27 78 45 125 17 47 38 108 47 135 8 28 19 55 23 60 4 6
13 34 19 63 25 119 56 123 84 12z"/>
<path d="M17381 11572 c-33 -16 -83 -79 -101 -129 -10 -27 -27 -63 -70 -155
-11 -24 -20 -50 -20 -58 0 -8 -11 -37 -25 -65 -13 -27 -25 -57 -25 -65 0 -8
-9 -32 -20 -53 -11 -20 -20 -47 -20 -60 0 -12 -8 -38 -19 -57 -10 -19 -22 -51
-26 -70 -4 -19 -16 -51 -26 -70 -11 -19 -19 -44 -19 -55 0 -11 -12 -42 -25
-70 -14 -27 -25 -59 -25 -70 0 -11 -9 -33 -20 -50 -11 -16 -20 -38 -20 -47 0
-18 -36 -116 -71 -196 -10 -23 -19 -49 -19 -57 0 -8 -11 -39 -25 -69 -14 -30
-25 -60 -25 -66 0 -7 -7 -26 -15 -43 -8 -18 -21 -52 -29 -77 -14 -42 -30 -87
-92 -247 -14 -38 -32 -90 -40 -117 -7 -26 -18 -54 -24 -62 -7 -7 -18 -35 -25
-61 -8 -26 -26 -79 -40 -118 -15 -38 -34 -90 -42 -115 -8 -25 -23 -63 -34 -86
-10 -23 -19 -49 -19 -58 0 -9 -9 -34 -20 -56 -11 -22 -20 -44 -20 -51 0 -12
-37 -103 -76 -184 -13 -28 -24 -55 -24 -61 0 -21 -104 -221 -156 -300 -30 -45
-77 -103 -106 -129 -48 -43 -65 -54 -158 -100 -150 -73 -167 -88 -140 -120 11
-13 82 -15 469 -15 251 1 487 5 524 9 74 10 107 30 107 66 0 24 -28 55 -51 55
-8 0 -49 11 -92 25 -84 26 -134 61 -179 128 -32 45 -34 71 -13 141 8 27 15 62
15 78 0 15 9 54 20 85 11 32 24 78 29 103 5 25 17 68 26 95 9 28 25 82 37 120
11 39 31 101 44 138 13 38 24 83 24 102 0 19 4 36 8 39 16 10 1131 11 1140 1
8 -9 34 -76 82 -215 7 -19 19 -48 26 -65 13 -28 41 -106 85 -240 11 -33 24
-64 30 -69 5 -6 9 -18 9 -28 0 -10 11 -49 23 -86 13 -37 30 -105 37 -151 13
-78 13 -85 -6 -118 -22 -40 -81 -68 -168 -78 -73 -8 -105 -23 -112 -52 -5 -18
0 -31 15 -46 19 -20 36 -23 164 -28 262 -11 1080 -9 1115 2 62 20 34 83 -59
129 -77 39 -165 107 -227 176 -51 56 -72 93 -132 227 -40 88 -73 165 -75 171
-1 6 -14 38 -30 71 -50 110 -72 160 -95 220 -13 33 -31 78 -41 100 -9 22 -26
60 -37 85 -11 25 -23 56 -27 70 -4 14 -16 41 -26 60 -11 19 -19 41 -19 48 0 7
-9 30 -20 51 -11 22 -26 56 -34 78 -26 69 -57 148 -71 180 -8 17 -15 35 -15
39 0 4 -9 26 -19 48 -21 45 -95 227 -117 291 -8 22 -21 54 -28 70 -8 17 -22
50 -31 75 -9 25 -26 68 -37 95 -11 28 -29 74 -40 104 -11 30 -26 64 -34 75 -8
11 -14 30 -14 41 0 11 -11 41 -25 67 -14 26 -25 54 -25 62 0 8 -11 36 -25 62
-14 26 -25 54 -25 63 0 9 -9 30 -20 46 -11 17 -20 38 -20 47 0 9 -11 38 -25
64 -14 26 -25 53 -25 60 0 8 -9 28 -20 46 -11 18 -20 39 -20 47 0 12 -37 99
-61 141 -20 36 -79 160 -79 167 0 4 -14 23 -31 41 -39 44 -77 55 -118 34z
m-101 -741 c5 -11 10 -30 10 -43 0 -12 8 -45 19 -73 10 -27 24 -66 31 -85 39
-111 49 -138 64 -165 9 -16 16 -38 16 -48 0 -10 7 -32 16 -49 9 -17 24 -54 34
-82 10 -28 30 -82 44 -121 15 -38 35 -92 45 -120 29 -77 60 -157 76 -192 8
-17 15 -35 15 -41 0 -10 31 -84 82 -193 17 -37 29 -72 26 -79 -3 -9 -113 -12
-478 -12 l-475 1 -3 21 c-2 12 8 39 22 60 13 20 28 55 31 76 4 22 13 53 20 69
18 42 54 152 66 200 5 22 18 61 29 87 11 26 20 55 20 65 0 10 7 31 15 47 8 15
21 51 29 80 18 62 43 136 67 196 10 25 21 61 25 80 4 19 15 51 25 70 11 19 19
44 19 55 0 11 9 37 20 58 11 20 20 45 20 54 1 26 37 103 49 103 6 0 15 -9 21
-19z"/>
<path d="M9754 11570 c-27 -11 -88 -82 -109 -129 -10 -20 -24 -49 -32 -66 -15
-32 -50 -120 -90 -225 -13 -36 -30 -80 -38 -97 -8 -18 -40 -108 -70 -200 -31
-92 -61 -175 -66 -186 -6 -10 -17 -40 -24 -65 -14 -49 -46 -139 -90 -257 -15
-38 -33 -90 -41 -115 -8 -25 -21 -59 -29 -77 -8 -17 -15 -38 -15 -48 0 -9 -7
-30 -17 -48 -9 -18 -22 -52 -29 -77 -21 -73 -53 -163 -68 -190 -8 -14 -17 -41
-21 -60 -4 -19 -16 -51 -26 -70 -11 -19 -19 -43 -19 -53 0 -10 -9 -35 -20 -57
-11 -22 -20 -47 -20 -57 0 -10 -9 -34 -19 -54 -11 -20 -23 -54 -27 -75 -4 -22
-14 -49 -22 -61 -7 -13 -18 -37 -22 -55 -8 -33 -36 -106 -71 -186 -11 -23 -19
-50 -19 -60 0 -9 -12 -39 -25 -67 -14 -27 -25 -57 -25 -65 0 -8 -9 -28 -20
-45 -11 -16 -20 -37 -20 -45 0 -8 -11 -37 -25 -65 -13 -27 -25 -55 -25 -62 0
-15 -46 -101 -64 -123 -8 -8 -21 -28 -29 -45 -25 -49 -168 -188 -230 -223 -33
-19 -71 -32 -91 -32 -56 0 -83 -15 -91 -51 -6 -25 -3 -36 14 -53 21 -21 24
-21 494 -20 494 2 547 6 567 45 21 38 9 63 -35 72 -139 28 -221 73 -276 153
-35 51 -38 80 -15 143 9 24 16 64 16 90 0 25 9 64 19 86 10 23 21 63 26 90 4
27 13 62 21 76 7 15 16 46 20 70 4 24 15 61 25 81 11 21 19 50 19 65 0 15 9
48 21 72 11 25 21 64 24 88 2 23 6 47 10 52 3 6 36 8 73 6 37 -3 295 -10 574
-16 573 -14 525 -5 551 -99 21 -76 46 -148 68 -196 11 -22 19 -49 19 -60 0
-10 9 -34 20 -52 11 -18 20 -41 20 -52 0 -11 11 -49 25 -86 14 -36 25 -73 25
-81 0 -8 9 -34 20 -59 11 -24 25 -65 30 -92 5 -26 13 -60 19 -75 19 -50 13
-83 -23 -121 -18 -20 -41 -36 -50 -36 -9 0 -31 -8 -49 -17 -18 -10 -48 -22
-67 -28 -22 -7 -41 -22 -53 -43 -18 -31 -19 -35 -3 -50 15 -16 69 -17 614 -17
584 0 598 0 632 21 27 16 35 27 35 49 0 24 -6 31 -30 39 -40 12 -146 55 -165
66 -8 5 -28 16 -45 24 -73 34 -126 112 -219 326 -21 47 -46 103 -56 125 -10
22 -28 65 -41 95 -12 30 -32 78 -44 105 -13 28 -26 61 -30 75 -4 14 -12 34
-19 45 -7 11 -18 40 -25 65 -7 25 -18 51 -24 58 -6 7 -18 34 -28 60 -9 26 -27
72 -39 102 -12 30 -33 82 -45 115 -51 135 -106 271 -116 289 -6 10 -19 42 -29
70 -10 28 -28 76 -40 106 -12 30 -31 79 -41 109 -10 30 -23 59 -28 65 -5 6
-14 27 -19 46 -6 19 -27 73 -47 120 -20 47 -42 103 -50 125 -7 22 -27 74 -45
115 -17 41 -38 93 -45 115 -7 22 -20 54 -29 70 -9 17 -16 36 -16 42 0 7 -12
39 -26 70 -57 123 -64 140 -64 149 0 5 -8 25 -19 44 -10 19 -24 53 -31 75 -7
22 -19 49 -26 60 -8 11 -14 26 -14 33 0 29 -152 318 -183 348 -35 35 -71 47
-103 34z m-102 -795 c10 -57 47 -159 112 -315 32 -74 62 -148 67 -165 6 -16
15 -39 21 -49 5 -10 18 -42 28 -70 24 -71 49 -135 65 -171 27 -59 67 -161 75
-190 8 -30 46 -120 95 -229 31 -70 27 -91 -16 -82 -25 5 -769 7 -894 2 -39 -1
-40 0 -37 29 2 17 14 53 27 80 24 50 45 111 70 196 7 26 20 60 28 75 8 16 20
51 26 79 7 27 16 54 21 60 5 6 14 29 19 50 14 55 50 163 69 205 8 19 19 48 23
65 11 40 57 175 69 200 13 28 57 173 64 214 13 72 56 82 68 16z"/>
<path d="M22295 11551 c-193 -7 -225 -17 -225 -70 0 -40 20 -52 97 -61 130
-15 262 -100 313 -200 16 -32 30 -72 30 -87 0 -15 9 -68 20 -118 13 -55 24
-162 30 -275 6 -102 12 -203 15 -225 19 -159 31 -1485 14 -1485 -13 0 -46 36
-102 110 -30 41 -95 123 -144 181 -48 58 -106 127 -128 154 -22 26 -45 53 -50
59 -12 13 -235 279 -320 382 -33 40 -113 137 -178 216 -65 79 -137 166 -161
193 -24 28 -63 75 -86 105 -24 30 -57 71 -74 90 -17 20 -47 55 -66 80 -19 24
-62 75 -94 114 -32 39 -92 112 -132 162 -40 51 -92 114 -116 141 -24 28 -50
59 -58 69 -8 11 -37 49 -65 84 -27 36 -62 79 -78 95 -15 17 -69 85 -119 153
-56 76 -100 125 -114 128 -12 3 -201 4 -419 2 l-397 -3 -19 -24 c-10 -13 -19
-32 -19 -42 0 -28 36 -59 68 -59 98 0 324 -118 338 -177 4 -13 10 -23 14 -23
24 0 48 -137 61 -350 9 -149 14 -1904 5 -1930 -2 -8 -7 -107 -11 -220 -4 -113
-10 -239 -15 -280 -8 -70 -11 -77 -47 -109 -37 -33 -146 -91 -170 -91 -7 0
-31 -18 -55 -40 l-42 -41 22 -22 23 -22 478 0 c390 0 481 3 494 14 10 7 17 17
17 22 0 13 -71 89 -83 89 -21 0 -153 65 -189 92 -52 41 -73 80 -102 191 -29
110 -39 258 -56 837 -6 190 -13 431 -16 535 -11 371 -10 896 1 905 16 13 29 0
111 -104 141 -180 470 -584 532 -654 19 -20 46 -53 60 -71 15 -19 38 -46 51
-60 13 -15 35 -42 50 -61 14 -19 36 -46 48 -60 36 -42 261 -310 327 -389 72
-88 170 -202 286 -336 46 -54 102 -121 123 -148 22 -27 47 -57 56 -66 9 -10
63 -73 121 -141 58 -68 164 -190 235 -272 72 -82 165 -189 208 -238 83 -96
106 -114 132 -104 52 20 63 199 69 1199 7 973 27 1692 51 1828 18 104 30 130
87 191 42 44 154 106 191 106 57 0 77 58 34 98 -20 19 -42 24 -148 32 -129 10
-424 10 -714 1z"/>
<path d="M24060 11553 c-115 -4 -140 -15 -140 -63 0 -35 25 -57 75 -65 51 -10
89 -29 144 -73 62 -50 68 -68 86 -262 36 -380 45 -2330 11 -2540 -2 -14 -7
-54 -11 -89 -7 -54 -14 -71 -43 -103 -45 -50 -119 -88 -185 -95 -63 -7 -92
-23 -104 -60 -14 -38 0 -71 33 -79 41 -10 1527 4 1694 16 174 13 354 36 378
50 30 16 126 58 152 65 14 4 32 13 40 19 8 7 62 36 120 66 257 130 478 335
627 579 44 72 133 253 133 269 0 10 7 28 16 40 9 13 23 51 30 85 8 33 19 66
25 73 6 7 13 39 16 71 2 32 12 81 21 108 14 42 17 95 17 320 0 240 -3 283 -23
390 -12 66 -32 147 -42 180 -11 33 -20 67 -20 75 0 8 -12 38 -25 65 -14 28
-25 55 -25 62 0 16 -85 177 -123 233 -95 140 -233 282 -359 368 -119 82 -242
146 -447 234 -57 24 -230 46 -451 56 -169 8 -1406 12 -1620 5z m1155 -177
c114 -4 222 -17 375 -45 87 -16 269 -95 355 -154 83 -57 201 -166 262 -242 76
-96 189 -276 198 -317 4 -15 13 -32 20 -38 8 -7 17 -28 21 -49 4 -20 15 -52
24 -71 10 -19 21 -55 25 -79 4 -24 14 -60 22 -80 8 -19 22 -83 30 -141 8 -58
18 -134 23 -170 23 -165 -3 -527 -50 -675 -10 -33 -21 -82 -25 -110 -4 -27
-15 -66 -26 -87 -10 -20 -19 -44 -19 -52 0 -9 -9 -30 -20 -48 -11 -18 -20 -40
-20 -48 0 -24 -121 -202 -191 -280 -79 -88 -223 -204 -309 -248 -176 -91 -384
-132 -674 -134 -188 -2 -192 -1 -242 24 -70 37 -101 97 -114 225 -6 52 -12 98
-14 102 -3 4 -8 56 -11 116 -4 61 -8 121 -10 134 -2 13 -5 395 -7 850 -1 454
-5 999 -8 1211 -3 212 -2 392 2 401 8 18 -11 18 383 5z"/>
<path d="M12282 11530 c-112 -8 -142 -22 -142 -68 0 -29 25 -51 60 -52 45 0
176 -59 210 -95 24 -25 35 -49 45 -97 19 -92 34 -279 45 -563 12 -332 24
-2227 13 -2240 -4 -6 -42 -38 -83 -72 -81 -67 -171 -113 -219 -113 -37 0 -61
-23 -61 -59 0 -58 -19 -56 634 -56 331 0 622 4 649 8 27 5 56 17 67 30 39 41
21 66 -61 83 -92 19 -180 43 -207 57 -37 18 -84 85 -93 130 -32 167 -39 250
-49 562 -13 435 -13 668 0 681 16 16 155 -3 203 -27 114 -58 247 -218 473
-569 244 -380 300 -463 390 -576 111 -139 222 -241 327 -302 54 -31 185 -82
211 -82 12 0 58 -10 102 -22 67 -18 107 -21 259 -22 174 -1 181 0 225 24 37
21 46 31 48 57 4 37 -26 73 -60 73 -132 3 -192 25 -298 105 -78 60 -196 187
-255 275 -59 88 -171 249 -231 335 -62 87 -203 298 -260 387 -27 43 -71 113
-98 155 -27 43 -72 111 -98 152 -27 40 -53 84 -58 96 -10 27 4 45 37 45 43 0
145 49 222 107 179 133 386 382 399 477 2 23 12 55 21 71 24 44 24 485 0 530
-9 17 -19 45 -22 63 -4 18 -15 45 -25 60 -10 15 -30 44 -44 65 -40 60 -147
165 -213 210 -121 83 -229 126 -340 138 -49 5 -103 12 -120 15 -60 13 -85 15
-380 24 -350 10 -1074 10 -1223 0z m1165 -186 c214 -23 224 -26 293 -61 152
-78 270 -246 326 -463 24 -90 27 -124 27 -235 -1 -88 -6 -146 -17 -180 -9 -27
-16 -63 -16 -78 0 -41 -54 -161 -104 -231 -24 -34 -70 -82 -102 -106 -61 -47
-186 -110 -220 -110 -10 0 -41 -7 -69 -16 -52 -16 -463 -38 -477 -25 -9 8 -12
1517 -3 1531 7 12 35 10 362 -26z"/>
<path d="M18530 5957 c-3 -2 -2811 -7 -6240 -11 -3429 -4 -6453 -9 -6720 -11
-1477 -14 -1860 -29 -1818 -70 14 -15 151 -26 423 -35 259 -9 12416 -13 13520
-5 182 1 2987 5 6235 9 6106 6 8907 12 9735 21 1114 12 1470 21 1442 36 -28
16 -230 38 -457 50 -170 9 -2150 13 -8170 16 -4370 2 -7948 2 -7950 0z"/>
<path d="M18529 4471 c-67 -42 -127 -114 -216 -255 -36 -57 -40 -82 -17 -114
12 -18 25 -22 67 -22 68 0 102 23 277 187 144 134 173 172 160 207 -7 19 -16
21 -116 23 -105 3 -111 2 -155 -26z"/>
<path d="M15982 3988 c-58 -4 -115 -14 -132 -23 -16 -8 -44 -15 -62 -15 -18 0
-44 -7 -58 -15 -14 -8 -36 -20 -50 -26 -88 -41 -118 -60 -177 -106 -138 -109
-270 -310 -315 -478 -10 -38 -23 -86 -28 -105 -5 -19 -10 -108 -10 -197 0
-125 4 -172 16 -202 8 -22 21 -66 29 -98 20 -90 71 -200 136 -290 34 -49 158
-153 210 -177 18 -9 45 -23 59 -30 49 -27 105 -48 200 -74 89 -25 109 -26 315
-27 l220 0 73 30 c52 20 85 42 113 72 38 41 39 45 39 113 0 130 -41 163 -150
120 -46 -18 -88 -24 -339 -47 -99 -9 -225 14 -300 55 -126 70 -234 210 -272
354 -45 172 -45 165 -19 304 12 71 31 146 41 166 11 21 19 43 19 50 0 17 107
175 126 186 8 5 34 26 57 48 59 56 110 84 194 105 77 19 92 19 378 -12 61 -6
125 -11 143 -11 42 0 78 33 94 84 10 34 8 43 -21 102 -34 69 -62 93 -142 122
-56 20 -253 31 -387 22z"/>
<path d="M18260 3990 c-81 -6 -166 -28 -220 -55 -14 -7 -44 -23 -67 -35 -64
-32 -190 -156 -242 -235 -77 -118 -116 -209 -152 -355 -32 -135 -32 -380 1
-502 67 -248 162 -407 314 -527 69 -54 165 -106 214 -116 18 -4 47 -14 65 -23
27 -14 65 -17 227 -17 177 0 201 2 258 23 34 12 69 22 77 22 22 0 172 73 240
118 73 47 175 156 216 231 16 31 41 101 54 156 21 89 24 123 24 330 1 242 -4
291 -38 420 -33 123 -87 222 -172 319 -44 49 -182 146 -229 161 -14 4 -39 16
-56 26 -17 11 -44 19 -60 19 -16 0 -41 7 -56 14 -49 26 -246 39 -398 26z m230
-280 c187 -35 281 -91 363 -212 30 -46 59 -96 63 -113 4 -16 15 -46 24 -65 10
-20 21 -72 25 -120 3 -47 8 -92 11 -101 3 -9 0 -76 -6 -148 -11 -140 -31 -206
-97 -322 -55 -98 -164 -178 -283 -208 -102 -26 -180 -34 -228 -23 -26 6 -78
17 -115 26 -97 22 -170 73 -229 161 -26 39 -52 86 -58 105 -6 19 -20 55 -30
80 -23 56 -59 290 -54 350 17 197 27 246 66 327 30 63 51 92 91 126 68 57 128
90 202 112 109 33 178 40 255 25z"/>
<path d="M23210 3990 c-33 -8 -108 -34 -210 -76 -118 -47 -245 -153 -326 -269
-27 -39 -73 -140 -83 -185 -5 -19 -16 -62 -25 -95 -12 -46 -16 -107 -16 -280
1 -121 5 -238 9 -260 55 -255 132 -398 281 -516 76 -61 214 -126 340 -161 74
-20 107 -23 250 -23 145 1 172 4 223 23 32 12 67 22 78 22 27 0 190 82 242
122 62 48 143 131 173 179 43 68 84 179 94 254 5 39 15 86 22 105 9 25 13 100
13 260 0 211 -1 229 -23 285 -36 93 -104 227 -133 260 -14 16 -35 45 -48 62
-57 82 -292 240 -386 258 -16 4 -56 15 -88 26 -47 16 -83 19 -205 18 -81 -1
-163 -5 -182 -9z m275 -290 c157 -27 200 -42 258 -91 50 -43 112 -131 130
-184 5 -16 13 -34 17 -40 5 -5 21 -62 37 -125 24 -100 28 -132 26 -245 -1 -71
-7 -143 -13 -160 -6 -16 -15 -53 -20 -80 -4 -28 -25 -85 -45 -127 -65 -134
-137 -199 -240 -217 -33 -6 -85 -16 -115 -22 -113 -23 -318 10 -413 66 -61 35
-128 112 -166 190 -17 35 -31 67 -31 72 0 6 -9 39 -21 74 -18 55 -21 90 -22
254 -1 179 0 195 25 273 31 98 76 177 138 238 75 75 131 101 305 137 11 3 22
5 25 6 3 0 59 -8 125 -19z"/>
<path d="M26203 3989 c-23 -4 -50 -12 -60 -17 -10 -5 -38 -13 -63 -17 -51 -8
-107 -30 -195 -77 -181 -95 -325 -259 -403 -458 -59 -153 -66 -194 -65 -390 1
-160 3 -193 21 -240 11 -30 23 -71 26 -90 9 -53 106 -220 169 -292 51 -58 99
-97 200 -163 21 -14 43 -25 50 -25 7 0 31 -9 52 -20 22 -11 85 -32 140 -47 92
-25 116 -27 290 -27 163 1 208 4 317 26 169 34 208 57 251 146 l32 67 3 387
c3 378 2 388 -18 408 -19 19 -32 20 -302 20 -156 0 -301 -5 -322 -10 -22 -5
-50 -20 -64 -34 -22 -21 -25 -34 -26 -93 -1 -79 17 -115 66 -132 17 -6 103
-11 193 -11 134 0 165 -3 175 -15 10 -12 10 -21 1 -41 -7 -16 -11 -94 -11
-219 0 -107 -4 -196 -8 -199 -5 -3 -93 -8 -196 -11 -217 -7 -311 6 -411 58
-77 40 -172 135 -211 212 -40 77 -85 231 -91 315 -7 86 28 270 67 356 94 204
222 308 422 342 85 14 107 14 268 -2 96 -9 208 -26 247 -36 93 -25 105 -25
140 4 29 24 53 90 53 145 0 98 -48 126 -315 181 -56 12 -358 11 -422 -1z"/>
<path d="M11735 3974 c-115 -29 -141 -38 -167 -56 -14 -10 -30 -18 -36 -18
-35 0 -179 -153 -197 -210 -4 -14 -16 -41 -26 -60 -30 -56 -27 -212 6 -290 51
-122 118 -202 230 -277 56 -37 227 -123 245 -123 9 0 24 -6 35 -14 11 -7 37
-19 59 -26 105 -34 243 -133 280 -201 32 -57 32 -80 2 -144 -28 -62 -82 -110
-138 -126 -80 -21 -173 -39 -208 -39 -54 0 -250 40 -298 61 -23 11 -48 19 -55
19 -7 0 -28 8 -47 18 -60 32 -87 35 -111 11 -20 -20 -21 -28 -15 -113 5 -70
13 -101 32 -133 32 -55 62 -74 164 -104 79 -22 101 -24 305 -24 203 0 225 2
290 23 268 88 403 236 422 459 6 76 -13 162 -58 261 -20 44 -113 152 -131 152
-6 0 -22 9 -37 19 -15 11 -96 55 -181 99 -254 129 -332 173 -392 220 -112 87
-131 138 -80 215 86 132 128 144 397 112 72 -9 157 -23 190 -31 33 -9 84 -18
114 -21 72 -7 81 6 81 109 0 137 -34 169 -235 218 -112 27 -142 31 -258 29
-73 -1 -154 -7 -182 -15z"/>
<path d="M8946 3944 c-17 -16 -18 -63 -14 -880 3 -767 5 -865 19 -879 17 -17
86 -32 189 -41 60 -6 67 -4 93 19 l27 26 0 270 c0 162 -4 281 -10 297 -7 18
-7 31 -1 37 6 6 79 9 173 8 123 -1 177 2 218 14 30 9 78 22 105 30 122 34 251
126 324 232 12 18 35 65 51 104 29 68 30 79 30 219 l0 148 -40 78 c-21 44 -66
108 -98 144 -134 148 -172 159 -593 170 -173 5 -347 12 -385 15 -60 6 -73 5
-88 -11z m704 -306 c107 -29 133 -53 163 -146 47 -143 17 -283 -74 -350 -23
-18 -50 -32 -59 -32 -9 0 -42 -7 -73 -15 -32 -8 -103 -17 -160 -20 -56 -3
-118 -7 -137 -10 -64 -9 -64 -10 -61 227 1 117 -3 247 -8 288 -5 41 -8 78 -5
82 3 4 80 5 172 2 123 -4 186 -11 242 -26z"/>
<path d="M20520 3940 c-20 -20 -20 -29 -18 -885 2 -693 6 -867 16 -877 10 -10
112 -13 485 -14 260 -1 493 1 519 3 54 6 93 35 104 79 12 48 -6 77 -69 108
-52 26 -70 29 -175 33 -64 2 -157 8 -207 14 -49 5 -148 12 -219 14 -71 2 -133
8 -137 12 -5 5 -9 333 -9 728 -1 469 -5 732 -12 753 -13 44 -38 52 -159 52
-86 0 -102 -3 -119 -20z"/>
<path d="M28765 3945 c-52 -18 -101 -72 -115 -127 -7 -24 -16 -47 -20 -53 -4
-5 -13 -26 -18 -45 -11 -36 -49 -143 -96 -265 -15 -38 -32 -86 -38 -105 -5
-19 -14 -40 -19 -46 -5 -6 -17 -37 -28 -70 -11 -32 -31 -90 -46 -129 -14 -38
-35 -92 -45 -120 -10 -27 -30 -81 -45 -120 -15 -38 -35 -95 -45 -125 -41 -119
-61 -176 -70 -195 -11 -25 -47 -128 -61 -175 -5 -19 -19 -52 -30 -72 -13 -25
-19 -52 -17 -80 3 -40 6 -45 48 -66 51 -26 97 -24 158 7 68 35 97 79 172 261
12 30 30 74 40 96 10 23 22 58 25 78 4 20 11 39 17 42 18 11 689 6 703 -6 7
-6 17 -30 20 -53 4 -23 13 -53 21 -67 8 -14 21 -45 30 -70 41 -113 51 -138 73
-175 37 -61 62 -86 109 -106 73 -32 180 -20 202 21 15 27 12 71 -6 105 -9 17
-24 53 -34 80 -37 103 -44 121 -66 176 -13 31 -24 64 -24 74 0 10 -9 32 -19
49 -10 17 -22 47 -26 66 -4 19 -16 51 -26 70 -11 19 -19 41 -19 48 0 8 -7 28
-15 45 -8 18 -24 58 -35 90 -52 149 -60 171 -69 181 -4 6 -11 25 -15 41 -4 17
-16 48 -26 70 -10 22 -30 74 -45 115 -14 41 -35 92 -46 112 -10 20 -19 45 -19
55 0 10 -7 32 -16 48 -9 17 -25 54 -35 83 -10 28 -28 76 -38 105 -29 80 -63
151 -75 159 -20 14 -229 8 -271 -7z m131 -372 c21 -94 45 -177 58 -205 16 -34
37 -91 63 -168 9 -25 24 -63 34 -86 11 -22 19 -47 19 -54 0 -8 12 -31 26 -51
16 -24 24 -47 22 -66 l-3 -28 -228 -1 c-174 0 -230 3 -239 13 -13 16 -3 59 22
90 10 13 22 43 25 66 4 23 15 58 25 77 9 19 20 49 24 65 4 17 13 44 21 60 21
47 56 155 64 205 17 98 53 142 67 83z"/>
<path d="M13700 3930 c-7 -14 -10 -286 -8 -896 3 -853 3 -876 22 -890 28 -20
214 -20 242 0 22 17 21 -41 11 791 -10 780 -16 987 -29 1002 -7 9 -42 13 -119
13 -98 0 -109 -2 -119 -20z"/>
</g>
</svg>
