<?xml version="1.0" standalone="no"?>
<!DOCTYPE svg PUBLIC "-//W3C//DTD SVG 20010904//EN"
 "http://www.w3.org/TR/2001/REC-SVG-20010904/DTD/svg10.dtd">
<svg version="1.0" xmlns="http://www.w3.org/2000/svg"
 width="1024.000000pt" height="1024.000000pt" viewBox="0 0 1024.000000 1024.000000"
 preserveAspectRatio="xMidYMid meet">

<g transform="translate(0.000000,1024.000000) scale(0.100000,-0.100000)"
fill="#000000" stroke="none">
<path d="M2220 7070 c-430 -3 -712 -8 -666 -12 94 -9 6924 -8 7141 1 442 18
-4221 26 -6475 11z"/>
<path d="M2887 6719 c-20 -12 -47 -67 -47 -95 0 -12 8 -7 29 15 36 39 60 39
113 1 49 -36 87 -38 116 -7 24 25 48 85 38 94 -3 3 -15 -6 -27 -20 -26 -34
-59 -35 -107 -2 -39 26 -84 32 -115 14z"/>
<path d="M1338 5915 c-3 -407 -3 -873 1 -1035 l7 -295 3 410 c1 226 3 527 5
670 1 143 -1 424 -4 625 -5 339 -5 312 -12 -375z"/>
<path d="M8978 6644 c-5 -4 -7 -471 -6 -1038 1 -842 3 -968 9 -691 10 405 7
1740 -3 1729z"/>
<path d="M2983 6542 c-16 -10 -38 -65 -153 -377 -109 -295 -124 -325 -182
-353 l-43 -21 123 -1 c116 0 151 10 82 23 -45 9 -48 43 -14 149 l28 89 129 -3
130 -3 29 -75 c16 -41 30 -93 31 -114 2 -37 0 -40 -33 -50 -33 -10 -30 -11 43
-14 43 -2 110 -2 150 0 l72 3 -37 17 c-21 9 -46 31 -56 48 -11 16 -74 173
-142 348 -67 174 -128 322 -134 329 -6 7 -17 9 -23 5z m75 -424 l12 -28 -115
0 -114 0 35 98 c19 53 44 123 56 155 l21 58 47 -128 c26 -70 52 -140 58 -155z"/>
<path d="M7092 6538 c-14 -18 -59 -131 -158 -402 -91 -251 -118 -300 -170
-322 -19 -8 -34 -16 -34 -19 0 -3 52 -5 116 -5 74 0 113 4 109 10 -3 6 -15 10
-25 10 -11 0 -27 11 -35 24 -18 27 -13 58 27 164 l20 53 126 -3 126 -3 33 -94
c19 -52 33 -104 31 -115 -2 -12 -16 -24 -38 -32 -31 -11 -18 -13 115 -13 l150
0 -37 20 c-21 10 -45 31 -55 45 -9 14 -73 175 -142 357 -70 182 -131 332 -137
334 -6 2 -16 -2 -22 -9z m31 -298 l53 -145 -104 -3 c-58 -1 -106 -1 -108 1 -3
2 19 73 48 156 29 84 54 149 55 144 2 -4 27 -73 56 -153z"/>
<path d="M8086 6535 c-49 -17 -112 -79 -127 -123 -6 -19 -9 -59 -7 -88 7 -80
41 -117 168 -181 136 -68 172 -104 178 -176 7 -92 -47 -157 -131 -157 -81 0
-146 52 -194 155 l-28 60 -3 -94 c-1 -52 -1 -100 2 -106 7 -20 118 -45 197
-45 105 0 146 14 200 69 69 68 86 148 50 226 -27 58 -58 83 -188 150 -64 33
-125 72 -135 86 -45 60 -27 163 33 194 85 45 181 -9 236 -131 l18 -39 3 40 c1
22 -1 65 -5 95 l-8 54 -60 13 c-78 16 -151 15 -199 -2z"/>
<path d="M2035 6531 c-101 -5 -108 -7 -84 -20 15 -7 32 -24 38 -38 12 -26 16
-579 4 -622 -4 -14 -21 -30 -47 -41 l-41 -19 160 0 c118 0 153 3 135 11 -81
32 -75 20 -78 163 l-2 130 82 0 c132 1 216 49 264 150 55 116 7 243 -105 275
-48 14 -191 19 -326 11z m262 -57 c47 -35 64 -75 65 -151 1 -119 -53 -193
-145 -201 -98 -8 -97 -9 -97 199 l0 181 74 -4 c56 -2 82 -9 103 -24z"/>
<path d="M3500 6529 c0 -3 18 -13 40 -22 61 -24 63 -35 57 -337 -6 -303 -12
-335 -67 -362 l-35 -17 118 -1 c76 0 116 4 112 10 -3 6 -14 10 -24 10 -11 0
-29 8 -41 18 -23 19 -23 22 -26 290 -2 150 0 272 4 272 4 0 32 -58 61 -128
127 -294 210 -477 219 -480 15 -5 24 16 152 328 62 151 117 279 122 285 5 5 7
-118 6 -280 l-3 -290 -45 -15 -45 -15 77 -3 c43 -2 113 -2 155 0 l78 3 -37 17
c-20 9 -41 25 -46 35 -12 22 -28 577 -18 617 5 19 19 33 49 46 l42 19 -101 0
-101 1 -18 -47 c-21 -54 -172 -422 -204 -497 l-22 -50 -48 110 c-27 60 -85
193 -131 296 l-82 187 -99 3 c-55 2 -99 0 -99 -3z"/>
<path d="M4570 6528 c0 -4 10 -10 23 -14 58 -17 57 -9 57 -348 0 -344 0 -346
-62 -362 -22 -6 62 -10 246 -12 153 -1 280 -1 282 1 7 7 25 148 22 169 -3 19
-8 15 -30 -27 -46 -88 -94 -114 -216 -115 -64 0 -76 3 -97 25 -24 23 -25 29
-25 165 l0 140 78 0 c90 0 115 -12 132 -65 20 -61 30 -38 30 69 0 110 -9 136
-30 85 -20 -48 -45 -59 -132 -59 l-78 0 0 160 0 160 89 0 c109 0 142 -18 184
-100 35 -70 52 -77 44 -19 -4 24 -9 67 -13 96 l-6 52 -249 3 c-137 2 -249 0
-249 -4z"/>
<path d="M5323 6528 c-2 -5 2 -8 10 -8 8 0 26 -9 41 -21 l26 -20 0 -313 c0
-266 -2 -315 -16 -334 -8 -12 -23 -22 -32 -22 -9 0 -24 -5 -32 -10 -10 -6 77
-10 256 -10 l272 0 12 83 c6 45 14 92 17 105 9 37 -12 25 -31 -18 -43 -97
-108 -140 -213 -140 -120 0 -113 -21 -113 340 0 169 3 316 6 325 4 10 21 23
38 30 28 12 19 14 -102 17 -74 2 -136 0 -139 -4z"/>
<path d="M6040 6534 c0 -5 14 -15 31 -23 17 -7 35 -24 40 -38 5 -13 9 -153 9
-311 0 -304 -3 -326 -48 -348 -12 -6 -25 -14 -29 -18 -3 -3 113 -6 259 -6
l266 0 12 88 c6 48 14 95 16 105 10 34 -13 16 -32 -25 -45 -100 -105 -138
-217 -138 -119 0 -112 -22 -115 327 -2 164 0 308 3 321 3 12 20 31 38 42 l32
20 -117 0 c-64 0 -123 3 -132 6 -9 3 -16 2 -16 -2z"/>
<path d="M8480 5888 c-11 -12 -20 -31 -20 -43 0 -27 40 -65 68 -65 29 0 62 34
62 65 0 57 -71 85 -110 43z"/>
<path d="M2975 5278 c-26 -68 -78 -207 -116 -311 -38 -103 -75 -200 -83 -215
-20 -39 -66 -82 -87 -82 -10 0 -21 -4 -24 -10 -4 -6 37 -10 114 -10 74 0 121
4 121 10 0 6 -8 10 -18 10 -28 0 -62 29 -62 52 0 12 12 59 27 105 l27 84 130
-3 129 -3 34 -94 c19 -52 33 -101 31 -109 -3 -15 -12 -21 -58 -40 -19 -8 12
-11 128 -11 150 -1 182 6 120 24 -17 6 -40 21 -50 35 -10 14 -76 174 -146 355
-106 271 -132 331 -149 333 -17 3 -27 -15 -68 -120z m74 -145 c23 -61 48 -127
56 -147 l15 -36 -113 0 -114 0 48 136 c59 169 59 168 63 163 2 -2 22 -54 45
-116z"/>
<path d="M4660 5293 c-23 -59 -75 -200 -116 -311 -88 -244 -108 -282 -166
-310 l-43 -21 123 -1 c75 0 122 4 122 10 0 6 -8 10 -18 10 -28 0 -62 29 -62
52 0 12 12 59 27 105 l27 83 127 0 127 0 30 -77 c39 -106 45 -132 31 -149 -6
-8 -22 -14 -35 -14 -12 0 -26 -4 -29 -10 -4 -6 47 -10 146 -10 84 0 150 3 146
6 -3 3 -20 13 -38 22 -18 10 -42 32 -52 50 -11 18 -75 176 -143 350 -99 256
-126 318 -142 320 -17 3 -27 -14 -62 -105z m39 -85 c7 -24 33 -91 56 -150 l43
-108 -112 0 -112 0 51 150 c27 82 53 150 56 150 3 0 12 -19 18 -42z"/>
<path d="M7260 5293 c-23 -60 -73 -191 -110 -293 -37 -102 -79 -208 -93 -237
-26 -51 -68 -93 -93 -93 -7 0 -16 -4 -19 -10 -4 -6 37 -10 114 -10 74 0 121 4
121 10 0 6 -8 10 -18 10 -31 0 -62 29 -62 58 0 15 12 62 27 105 l28 77 125 0
125 0 29 -77 c16 -43 30 -96 30 -118 1 -35 -2 -40 -24 -43 -14 -2 -29 -8 -34
-13 -6 -5 50 -9 142 -9 84 0 152 2 152 5 0 3 -15 11 -32 18 -18 8 -41 24 -52
35 -14 17 -164 388 -260 645 -29 76 -46 65 -96 -60z m35 -75 c4 -18 27 -84 51
-146 24 -63 44 -116 44 -118 0 -2 -49 -4 -109 -4 l-109 0 52 150 c28 82 54
150 58 150 3 0 10 -15 13 -32z"/>
<path d="M3560 5380 c0 -5 9 -10 20 -10 11 0 29 -9 40 -20 19 -19 20 -33 20
-328 l0 -309 -23 -21 c-13 -12 -31 -22 -40 -22 -9 0 -19 -4 -22 -10 -4 -7 48
-10 150 -10 144 0 188 9 116 23 -56 12 -61 25 -61 178 l0 139 24 0 c38 0 69
-33 145 -154 79 -127 121 -169 187 -185 64 -16 134 -14 134 4 0 8 -6 12 -14 9
-22 -8 -72 22 -105 64 -27 33 -181 270 -181 277 0 2 11 6 25 9 35 9 105 74
122 113 17 42 17 127 -1 161 -21 40 -56 70 -105 87 -52 18 -431 23 -431 5z
m367 -46 c41 -30 63 -80 63 -144 0 -111 -58 -170 -166 -170 l-64 0 0 171 0
171 70 -4 c49 -2 77 -9 97 -24z"/>
<path d="M5210 5381 c0 -5 16 -12 35 -15 19 -4 43 -18 55 -33 19 -25 20 -39
20 -320 0 -173 -4 -302 -10 -313 -5 -10 -24 -24 -42 -31 l-33 -13 57 -4 c32
-1 84 -2 115 0 l58 3 -37 17 c-61 28 -63 35 -65 323 -3 230 -1 258 12 240 44
-60 492 -589 501 -592 9 -3 13 86 15 329 4 298 6 337 22 361 9 15 28 29 42 33
57 14 18 24 -95 24 -73 0 -120 -4 -120 -10 0 -5 11 -10 24 -10 14 0 37 -10 51
-23 23 -19 28 -34 36 -108 5 -46 8 -158 7 -247 l-3 -162 -206 247 c-113 137
-216 263 -229 281 l-24 32 -93 0 c-51 0 -93 -4 -93 -9z"/>
<path d="M6145 5381 c3 -6 13 -11 21 -11 8 0 23 -9 34 -20 19 -19 20 -33 20
-330 0 -297 -1 -311 -20 -330 -11 -11 -29 -20 -39 -20 -11 0 -23 -5 -27 -11
-4 -8 58 -10 217 -7 221 3 225 3 284 31 81 38 120 70 160 130 49 75 68 153 63
251 -8 139 -71 237 -191 292 -62 29 -62 29 -296 32 -163 2 -231 0 -226 -7z
m388 -37 c144 -49 225 -233 187 -426 -15 -78 -38 -123 -87 -170 -48 -47 -107
-68 -189 -68 -109 0 -104 -17 -104 360 l0 320 73 0 c41 0 94 -7 120 -16z"/>
<path d="M1585 4160 c-71 -3 1432 -6 3340 -7 1909 0 3574 3 3700 6 127 4
-1376 7 -3340 7 -1963 0 -3628 -3 -3700 -6z"/>
<path d="M4926 3816 c-31 -41 -32 -46 -8 -46 10 0 36 18 57 40 l39 40 -31 0
c-23 0 -37 -8 -57 -34z"/>
<path d="M3424 3726 c-66 -29 -84 -101 -38 -155 15 -18 49 -39 85 -52 84 -31
109 -69 69 -109 -24 -24 -94 -27 -146 -5 l-35 14 3 -31 c3 -27 8 -33 38 -41
19 -5 61 -7 93 -5 92 7 142 68 116 145 -10 30 -22 40 -98 76 -94 46 -110 69
-74 109 15 17 26 19 68 15 27 -3 60 -8 73 -12 19 -6 22 -4 22 18 0 22 -7 28
-37 36 -51 14 -101 13 -139 -3z"/>
<path d="M4335 3725 c-100 -35 -150 -158 -111 -268 18 -50 42 -76 91 -98 44
-20 129 -25 169 -9 19 7 26 17 26 36 0 21 -3 25 -17 19 -10 -4 -43 -10 -73
-12 -43 -3 -62 0 -88 17 -86 53 -81 198 8 258 35 24 49 25 145 10 32 -5 27 44
-5 53 -41 12 -103 9 -145 -6z"/>
<path d="M4845 3726 c-139 -61 -138 -314 2 -372 77 -33 189 -5 234 57 20 28
25 49 27 114 4 104 -21 159 -88 193 -51 25 -127 29 -175 8z m145 -51 c78 -40
90 -195 20 -257 -35 -32 -102 -38 -150 -13 -57 30 -80 174 -36 237 34 48 109
63 166 33z"/>
<path d="M5930 3718 c-64 -33 -90 -82 -90 -173 0 -95 27 -151 90 -182 87 -45
206 -19 251 53 26 43 37 146 20 197 -37 110 -163 159 -271 105z m160 -44 c76
-45 82 -217 9 -268 -15 -10 -44 -16 -76 -16 -70 0 -109 33 -122 103 -21 115
27 197 115 197 25 0 58 -7 74 -16z"/>
<path d="M6597 3725 c-78 -27 -127 -101 -127 -190 0 -129 87 -204 225 -193
102 9 105 12 105 123 l0 95 -75 0 c-73 0 -75 -1 -75 -25 0 -23 3 -25 48 -25
l47 0 -1 -57 -2 -58 -58 -3 c-45 -2 -67 2 -92 18 -87 54 -81 212 9 262 26 15
47 18 94 15 33 -3 67 -8 76 -12 12 -4 18 1 21 19 5 23 1 27 -31 36 -50 14
-119 12 -164 -5z"/>
<path d="M2840 3542 l0 -190 25 -4 c13 -3 27 -3 30 0 3 3 5 36 5 74 l0 68 45
0 c94 0 155 49 155 126 0 34 -6 51 -29 76 -29 33 -31 33 -130 36 l-101 4 0
-190z m182 121 c11 -10 18 -30 18 -54 0 -49 -27 -69 -92 -69 l-48 0 0 70 0 70
52 0 c34 0 58 -6 70 -17z"/>
<path d="M3890 3538 l0 -193 25 0 25 0 0 193 0 192 -25 0 -25 0 0 -192z"/>
<path d="M5390 3540 l0 -190 110 0 c125 0 125 0 125 20 0 12 -19 16 -90 20
l-90 5 0 167 0 168 -27 0 -28 0 0 -190z"/>
<path d="M7185 3713 c-40 -102 -135 -356 -135 -362 0 -4 12 -6 26 -6 22 1 30
10 48 56 l22 54 79 0 79 0 21 -54 c17 -47 24 -54 48 -55 15 -1 27 2 27 7 0 4
-32 91 -71 192 l-72 185 -32 0 c-22 0 -35 -6 -40 -17z m73 -211 c-15 -2 -43
-2 -61 0 l-33 3 29 83 30 84 32 -84 31 -83 -28 -3z"/>
</g>
</svg>
