<?xml version="1.0" standalone="no"?>
<!DOCTYPE svg PUBLIC "-//W3C//DTD SVG 20010904//EN"
 "http://www.w3.org/TR/2001/REC-SVG-20010904/DTD/svg10.dtd">
<svg version="1.0" xmlns="http://www.w3.org/2000/svg"
 width="1024.000000pt" height="1024.000000pt" viewBox="0 0 1024.000000 1024.000000"
 preserveAspectRatio="xMidYMid meet">

<g transform="translate(0.000000,1024.000000) scale(0.100000,-0.100000)"
fill="#000000" stroke="none">
<path d="M1200 6340 c0 -12 7772 -12 7810 0 14 4 -1738 8 -3892 9 -2606 1
-3918 -2 -3918 -9z"/>
<path d="M2374 6096 c-30 -30 -54 -59 -54 -65 0 -20 25 -11 69 24 l44 35 47
-35 c45 -33 80 -45 80 -27 0 10 -113 122 -123 122 -5 0 -33 -24 -63 -54z"/>
<path d="M1200 5140 c0 -593 3 -900 10 -900 7 0 10 307 10 900 0 593 -3 900
-10 900 -7 0 -10 -307 -10 -900z"/>
<path d="M9020 5145 c0 -584 3 -895 10 -895 6 0 11 313 12 895 2 711 0 895 -9
895 -10 0 -13 -186 -13 -895z"/>
<path d="M7585 5964 c-87 -24 -135 -86 -135 -173 0 -104 40 -151 166 -195 130
-46 174 -92 174 -181 0 -38 -5 -52 -28 -75 -51 -51 -161 -53 -233 -5 -43 28
-66 67 -85 140 -12 49 -12 49 -11 -49 l2 -100 35 -20 c49 -29 236 -30 293 -2
54 27 89 77 95 135 10 109 -39 174 -183 241 -138 65 -181 117 -156 193 17 50
42 67 105 74 66 7 132 -14 158 -51 9 -13 23 -48 31 -77 l14 -54 4 84 c4 77 2
85 -18 98 -23 15 -190 27 -228 17z"/>
<path d="M1586 5944 c34 -12 43 -21 48 -46 3 -17 6 -153 6 -304 l0 -273 -47
-14 c-47 -15 -45 -15 97 -15 129 0 140 1 100 11 -54 15 -58 24 -59 168 l-1
106 98 6 c113 6 170 25 211 73 34 38 46 85 39 149 -7 55 -38 99 -91 128 -39
20 -57 22 -242 24 -188 2 -198 1 -159 -13z m329 -18 c38 -25 55 -74 55 -161 0
-131 -35 -165 -166 -165 -65 0 -75 2 -70 16 3 9 6 88 6 176 l0 161 74 -5 c47
-3 85 -11 101 -22z"/>
<path d="M2970 5942 l45 -18 0 -299 0 -300 -50 -17 -50 -17 115 0 115 1 -50
16 -50 17 -3 269 c-1 148 0 267 3 264 3 -3 61 -130 129 -284 68 -153 128 -280
133 -281 6 -2 61 121 123 274 158 391 147 376 142 191 -2 -84 -7 -218 -10
-298 l-7 -144 -45 -12 c-41 -11 -31 -12 104 -13 144 -1 173 4 104 18 l-33 7
-7 144 c-8 148 -1 449 11 468 3 5 22 15 41 20 29 9 18 10 -63 9 l-98 -2 -85
-205 c-47 -113 -94 -229 -105 -257 -22 -57 -34 -66 -43 -30 -3 12 -50 128
-105 257 l-99 235 -103 2 -104 2 45 -17z"/>
<path d="M3983 5945 c21 -7 41 -16 44 -19 4 -3 9 -138 11 -300 l5 -294 -24
-12 c-12 -7 -34 -16 -48 -21 -14 -4 89 -8 230 -8 l256 -1 11 38 c18 61 35 162
29 168 -3 3 -10 -12 -16 -33 -14 -53 -49 -103 -87 -125 -37 -22 -144 -38 -206
-31 -44 5 -46 7 -52 42 -3 20 -6 89 -6 154 l0 117 93 0 c106 0 127 -11 147
-72 6 -21 12 -38 14 -38 1 0 1 51 1 114 0 63 -3 109 -7 103 -4 -7 -8 -19 -8
-28 0 -8 -9 -25 -20 -37 -19 -20 -31 -22 -122 -22 l-101 0 7 92 c3 50 6 117 6
150 l0 58 78 0 c93 0 164 -29 212 -88 37 -45 37 -40 4 43 l-26 65 -232 0
c-207 -1 -227 -2 -193 -15z"/>
<path d="M4730 5948 c66 -18 65 -11 68 -309 2 -149 1 -282 -2 -295 -5 -17 -18
-27 -54 -38 -44 -14 -28 -15 217 -13 l264 2 12 55 c15 66 26 150 21 150 -3 0
-14 -29 -26 -64 -35 -107 -70 -126 -231 -126 l-109 0 0 298 c0 164 4 304 10
312 5 8 26 20 47 26 33 10 19 12 -107 12 -112 0 -137 -2 -110 -10z"/>
<path d="M5494 5946 c25 -8 42 -21 48 -35 4 -13 7 -150 6 -305 l-3 -281 -50
-17 c-49 -17 -47 -17 215 -15 l265 2 17 90 c22 111 18 139 -7 60 -36 -113 -76
-134 -247 -135 l-98 0 0 298 c0 164 4 304 10 312 5 8 26 20 47 26 33 10 21 12
-102 12 -124 0 -136 -1 -101 -12z"/>
<path d="M2325 5663 c-59 -158 -114 -298 -123 -311 -9 -14 -34 -33 -56 -43
l-41 -18 61 0 c34 -1 82 -4 108 -7 58 -8 63 11 4 20 -66 11 -65 2 -11 149 l25
67 118 0 117 0 38 -100 c21 -55 35 -103 31 -107 -3 -3 -23 -9 -43 -13 -24 -5
17 -8 107 -8 139 0 143 0 104 14 -48 17 -34 -11 -173 341 -125 311 -121 303
-141 303 -13 0 -42 -66 -125 -287z m135 32 c29 -71 56 -134 61 -139 20 -22 4
-26 -106 -26 -63 0 -115 3 -115 7 0 8 104 292 106 290 1 -1 25 -60 54 -132z"/>
<path d="M6485 5914 c-8 -19 -51 -135 -96 -257 -122 -332 -117 -323 -203 -351
-30 -10 -17 -13 97 -20 107 -6 147 6 61 19 -25 3 -47 12 -50 19 -6 15 53 178
67 186 5 4 60 6 121 6 l112 -1 33 -85 c50 -128 50 -117 1 -128 -35 -8 -16 -10
97 -10 106 -1 134 2 115 10 -14 5 -32 13 -40 18 -8 4 -71 147 -140 318 -134
334 -144 350 -175 276z m47 -236 c31 -79 55 -144 54 -146 -2 -1 -53 -1 -113 0
l-110 3 51 142 c28 79 53 143 56 143 3 0 31 -64 62 -142z"/>
<path d="M8068 5345 c-17 -37 3 -75 40 -75 35 0 52 16 52 50 0 34 -17 50 -52
50 -21 0 -32 -7 -40 -25z"/>
<path d="M5103 5016 c21 -6 42 -18 47 -26 6 -8 10 -146 10 -307 0 -279 -1
-293 -19 -303 -11 -5 -31 -10 -45 -10 -14 0 -26 -3 -26 -8 0 -9 206 -9 216 1
4 4 -8 7 -27 7 -19 0 -45 7 -57 16 -22 15 -22 17 -22 282 0 255 1 266 18 246
9 -12 85 -104 167 -204 83 -100 183 -222 223 -271 40 -49 76 -89 80 -89 4 0 5
143 4 318 -4 349 -7 332 58 350 28 8 13 10 -80 10 -99 0 -109 -2 -70 -10 25
-5 51 -17 58 -26 9 -12 12 -77 12 -245 l0 -229 -47 60 c-27 32 -107 131 -178
218 -72 88 -144 176 -159 197 l-28 37 -87 -1 c-82 -1 -84 -2 -48 -13z"/>
<path d="M5955 5012 l50 -17 3 -300 c3 -330 4 -325 -59 -325 -15 0 -31 -5 -35
-11 -12 -19 367 -5 435 16 93 29 141 66 178 139 53 104 65 186 39 281 -26 99
-76 158 -171 206 -48 23 -59 24 -270 26 -220 2 -220 2 -170 -15z m367 -24 c62
-27 113 -84 132 -149 20 -66 21 -220 2 -283 -39 -129 -144 -196 -283 -181
l-63 7 0 313 0 314 23 4 c40 9 141 -4 189 -25z"/>
<path d="M2921 4773 c-51 -137 -103 -276 -117 -310 -26 -63 -55 -92 -96 -94
-37 -3 91 -17 152 -17 56 0 49 7 -22 22 -19 4 -28 13 -28 26 0 19 48 160 59
172 3 3 59 8 123 10 l117 3 35 -90 c20 -50 36 -98 36 -106 0 -11 -15 -20 -42
-26 -36 -9 -20 -11 100 -12 89 -1 142 3 142 9 0 6 -10 10 -23 10 -49 0 -42
-13 -254 513 -41 102 -60 137 -73 137 -13 0 -37 -54 -109 -247z m106 27 c17
-47 43 -111 57 -142 l26 -58 -115 0 c-63 0 -115 3 -115 8 0 18 106 290 111
284 3 -4 20 -45 36 -92z"/>
<path d="M3520 5011 c8 -6 23 -11 32 -11 9 0 24 -7 32 -16 14 -13 16 -55 16
-309 l0 -294 -47 -14 c-47 -15 -46 -15 92 -15 126 0 136 1 100 12 l-40 13 -3
150 -3 151 41 -2 c56 -3 88 -37 148 -161 67 -136 83 -149 180 -153 l77 -3 -35
16 c-44 20 -60 40 -116 146 -49 95 -62 110 -120 139 -35 17 -37 19 -13 20 37
0 130 51 153 83 16 22 21 43 21 90 -1 74 -20 109 -79 140 -38 20 -58 22 -246
25 -142 2 -200 0 -190 -7z m360 -30 c32 -23 49 -71 49 -144 1 -64 -17 -110
-50 -128 -12 -6 -57 -14 -101 -16 l-79 -6 3 154 3 154 30 7 c44 10 117 -1 145
-21z"/>
<path d="M4491 4720 c-63 -165 -119 -307 -125 -316 -6 -8 -28 -21 -49 -28
l-38 -13 83 -6 c46 -4 97 -7 113 -6 30 1 30 1 5 9 -14 4 -37 11 -52 14 -36 8
-36 28 1 126 l27 75 122 5 122 5 19 -50 c11 -27 29 -74 40 -103 16 -39 18 -54
8 -56 -6 -2 -28 -8 -47 -14 -28 -8 -6 -10 108 -11 141 -1 176 7 105 25 l-37 9
-102 250 c-56 138 -114 280 -129 318 -18 44 -33 67 -44 67 -12 0 -45 -77 -130
-300z m99 158 c1 -7 24 -73 54 -145 l53 -133 -114 0 c-62 0 -113 3 -113 7 0 4
24 69 53 145 47 125 66 161 67 126z"/>
<path d="M6917 4823 c-41 -109 -80 -216 -87 -238 -7 -22 -26 -73 -42 -113 -30
-72 -57 -100 -105 -103 -31 -3 100 -17 157 -17 l55 0 -48 13 c-27 7 -51 16
-55 20 -3 3 8 47 24 98 l30 92 122 5 122 5 9 -25 c6 -14 21 -54 35 -90 36 -94
37 -92 -14 -106 -42 -11 -34 -12 98 -13 88 -1 142 3 142 9 0 6 -10 10 -23 10
-13 0 -31 6 -40 13 -12 9 -215 492 -260 620 -4 9 -15 17 -25 17 -16 0 -33 -36
-95 -197z m83 -3 c13 -36 38 -100 56 -142 l32 -78 -119 0 -119 0 21 53 c12 28
37 96 57 149 20 54 39 94 43 90 4 -4 17 -36 29 -72z"/>
<path d="M2578 3943 c-758 -2 -1378 -7 -1378 -11 0 -5 1762 -9 3915 -8 2153 0
3915 3 3915 6 0 8 -3391 21 -4390 18 -377 -2 -1305 -4 -2062 -5z"/>
<path d="M5020 3621 c-24 -46 -3 -56 23 -11 16 26 16 30 3 30 -8 0 -20 -9 -26
-19z"/>
<path d="M3540 3451 c0 -74 4 -121 10 -121 6 0 10 15 10 34 0 33 1 34 52 38
62 6 88 32 88 88 0 52 -26 73 -100 78 l-60 4 0 -121z m127 63 c15 -24 15 -29
2 -53 -12 -21 -23 -27 -62 -29 l-47 -3 0 55 0 56 45 0 c37 0 47 -4 62 -26z"/>
<path d="M3932 3554 c-18 -12 -22 -24 -20 -52 3 -34 8 -39 62 -67 67 -33 75
-45 50 -70 -14 -13 -29 -16 -66 -13 -33 4 -48 2 -45 -6 5 -17 109 -19 131 -3
23 17 24 63 2 85 -9 9 -35 24 -59 33 -32 13 -43 22 -45 42 -5 43 38 56 102 31
10 -4 16 -1 16 9 0 29 -91 37 -128 11z"/>
<path d="M4280 3450 c0 -100 3 -120 15 -120 13 0 15 20 15 120 0 100 -2 120
-15 120 -12 0 -15 -20 -15 -120z"/>
<path d="M4595 3561 c-76 -31 -93 -160 -28 -211 31 -24 114 -28 132 -6 8 9 8
16 2 20 -5 4 -12 2 -16 -4 -12 -20 -75 -11 -100 15 -33 32 -35 100 -3 140 19
25 26 27 70 23 34 -4 48 -1 48 7 0 24 -63 33 -105 16z"/>
<path d="M4958 3554 c-73 -39 -76 -159 -6 -208 35 -25 100 -21 131 8 32 29 41
63 34 119 -11 80 -89 119 -159 81z m112 -42 c24 -29 26 -82 5 -121 -38 -74
-130 -43 -142 48 -12 92 83 143 137 73z"/>
<path d="M5340 3450 l0 -120 75 0 c62 0 75 3 75 16 0 13 -10 15 -60 12 l-60
-3 0 108 c0 88 -3 107 -15 107 -12 0 -15 -20 -15 -120z"/>
<path d="M5728 3555 c-73 -41 -76 -160 -6 -209 26 -18 90 -21 119 -6 55 30 65
148 17 197 -31 31 -92 39 -130 18z m111 -41 c31 -39 29 -107 -4 -139 -31 -32
-66 -32 -102 -1 -24 21 -28 32 -28 74 0 64 23 92 76 92 29 0 42 -6 58 -26z"/>
<path d="M6164 3560 c-58 -23 -83 -115 -49 -180 20 -38 43 -50 99 -50 70 0 76
5 76 64 l0 52 -40 -4 c-46 -5 -54 -22 -10 -22 26 0 30 -3 30 -29 0 -31 -14
-41 -59 -41 -63 0 -104 70 -77 133 19 46 47 60 107 55 53 -5 65 6 23 22 -30
12 -71 12 -100 0z"/>
<path d="M6525 3463 c-21 -60 -40 -114 -43 -120 -2 -7 3 -13 11 -13 8 0 20 14
26 30 9 28 13 30 64 30 51 0 55 -2 67 -30 12 -28 47 -45 38 -17 -73 204 -84
227 -104 227 -18 0 -27 -17 -59 -107z m100 -35 c6 -16 1 -18 -39 -18 -51 0
-52 3 -32 57 8 21 17 47 21 58 5 16 10 10 25 -30 10 -27 21 -58 25 -67z"/>
</g>
</svg>
