<?xml version="1.0" standalone="no"?>
<!DOCTYPE svg PUBLIC "-//W3C//DTD SVG 20010904//EN"
 "http://www.w3.org/TR/2001/REC-SVG-20010904/DTD/svg10.dtd">
<svg version="1.0" xmlns="http://www.w3.org/2000/svg"
 width="846.000000pt" height="473.000000pt" viewBox="0 0 846.000000 473.000000"
 preserveAspectRatio="xMidYMid meet">

<g transform="translate(0.000000,473.000000) scale(0.100000,-0.100000)"
fill="#000000" stroke="none">
<path d="M2805 4248 c-869 -4 -1647 -12 -1730 -17 -108 -6 63 -8 605 -10 1217
-2 5786 20 5890 28 124 11 -2750 10 -4765 -1z"/>
<path d="M1987 3878 c-9 -7 -23 -30 -32 -50 -12 -31 -13 -38 -2 -38 8 0 22 9
32 20 24 26 47 25 93 -4 76 -48 113 -41 146 27 23 50 21 65 -6 40 -36 -32 -52
-33 -108 -7 -58 27 -98 30 -123 12z"/>
<path d="M7261 3719 c-55 -11 -111 -49 -146 -99 -25 -36 -27 -46 -23 -109 5
-90 21 -112 124 -173 186 -109 185 -109 206 -155 53 -120 -41 -236 -163 -203
-49 14 -109 71 -146 142 l-28 53 -3 -88 c-2 -53 2 -94 8 -102 29 -36 235 -53
312 -27 42 15 113 87 134 137 20 49 17 93 -10 151 -26 57 -56 81 -191 154
-112 60 -134 79 -147 121 -22 74 12 148 78 169 69 23 153 -31 204 -130 11 -22
23 -40 27 -40 10 0 -7 163 -18 176 -6 7 -36 16 -67 19 -31 3 -68 8 -82 10 -14
1 -45 -1 -69 -6z"/>
<path d="M6216 3698 c-9 -14 -64 -153 -121 -308 -121 -326 -145 -375 -199
-410 l-39 -25 98 -3 c103 -3 152 5 105 17 -14 4 -31 20 -39 35 -12 26 -11 37
13 109 15 45 31 86 36 91 5 7 52 9 132 6 l123 -5 35 -104 34 -104 -29 -23 -30
-24 138 0 139 0 -44 33 c-47 36 -41 22 -221 483 -48 121 -93 228 -101 239 -13
18 -14 17 -30 -7z m39 -296 c26 -73 45 -135 42 -138 -2 -3 -50 -3 -105 -2
l-101 3 43 131 c47 142 55 160 65 147 4 -4 29 -68 56 -141z"/>
<path d="M5195 3677 l40 -35 3 -273 c4 -310 1 -351 -34 -386 -13 -13 -24 -26
-24 -29 0 -2 116 -3 257 -2 l258 3 13 90 c7 50 11 97 10 105 -2 8 -17 -10 -35
-41 -56 -100 -117 -133 -236 -127 -89 4 -87 -2 -94 353 l-6 294 35 35 36 36
-106 0 c-59 0 -118 3 -132 6 -22 5 -20 2 15 -29z"/>
<path d="M2065 3668 c-7 -18 -54 -148 -105 -288 -115 -318 -142 -377 -194
-410 l-39 -25 89 -3 c49 -2 100 0 114 3 l25 7 -31 13 c-17 7 -34 20 -38 30 -6
15 10 93 35 173 l11 32 128 0 c147 0 134 8 169 -99 25 -78 27 -129 5 -138 -13
-5 -13 -7 -2 -14 16 -11 196 -10 223 0 19 8 19 8 -2 15 -43 14 -72 68 -183
348 -146 366 -157 388 -175 388 -9 0 -22 -15 -30 -32z m60 -280 l52 -138 -113
0 -113 0 50 141 c55 158 61 170 67 149 3 -8 28 -77 57 -152z"/>
<path d="M3690 3691 c0 -5 11 -12 25 -15 41 -10 46 -57 43 -387 -3 -273 -5
-302 -20 -313 -10 -7 -18 -16 -18 -20 0 -3 116 -5 257 -4 l257 3 7 30 c11 47
17 135 9 135 -5 0 -22 -21 -38 -48 -45 -69 -79 -85 -187 -90 -85 -4 -91 -3
-112 20 -20 21 -23 38 -29 166 l-7 142 74 0 c87 0 119 -13 139 -57 8 -18 18
-33 23 -33 4 0 7 45 7 100 0 55 -4 100 -8 100 -4 0 -16 -14 -26 -31 -23 -39
-51 -49 -137 -49 l-69 0 0 166 0 167 88 -5 c48 -3 99 -11 115 -18 15 -8 45
-42 69 -79 23 -36 43 -60 46 -53 2 7 -1 51 -8 97 l-12 85 -244 0 c-136 0 -244
-4 -244 -9z"/>
<path d="M4467 3680 c17 -10 37 -28 42 -39 12 -22 14 -550 3 -616 -6 -31 -14
-43 -37 -55 -28 -14 -9 -15 229 -18 142 -1 260 -1 262 1 2 2 34 189 34 202 0
17 -23 -12 -45 -54 -44 -88 -104 -121 -221 -121 -45 0 -65 4 -75 17 -11 13
-15 84 -17 339 -3 317 -3 323 17 336 12 7 21 16 21 20 0 5 -55 8 -122 8 l-123
0 32 -20z"/>
<path d="M1062 3684 c-10 -5 -8 -12 9 -31 21 -21 24 -38 30 -146 11 -184 10
-472 -1 -501 -5 -14 -24 -35 -42 -46 l-33 -20 138 0 c75 0 137 3 137 8 0 4
-13 14 -29 23 -34 20 -41 48 -41 180 l0 99 68 0 c38 0 91 7 118 15 181 54 238
296 92 392 -41 28 -42 28 -237 30 -108 1 -202 0 -209 -3z m334 -49 c54 -35 82
-121 68 -210 -12 -86 -67 -140 -151 -151 -75 -9 -79 1 -88 215 l-6 174 76 -6
c45 -3 87 -12 101 -22z"/>
<path d="M2624 3681 c3 -4 19 -14 36 -21 18 -8 33 -23 38 -39 11 -40 4 -545
-8 -590 -6 -25 -23 -50 -43 -65 l-32 -26 90 1 c50 0 99 4 109 8 18 7 16 9 -11
19 -17 6 -36 19 -42 30 -13 25 -27 527 -14 535 5 3 67 -124 137 -283 71 -159
134 -294 141 -300 9 -7 15 -7 23 2 5 7 53 119 105 248 134 329 139 340 148
340 5 0 9 -126 9 -280 l0 -280 -32 -14 c-31 -13 -23 -14 102 -15 108 0 131 3
116 12 -46 28 -53 43 -59 123 -11 139 -20 510 -13 538 4 15 21 36 39 47 l32
19 -93 -2 -92 -3 -117 -292 c-65 -161 -120 -293 -123 -293 -3 0 -63 133 -134
295 l-129 295 -94 0 c-52 0 -92 -4 -89 -9z"/>
<path d="M8125 2935 c0 -396 1 -557 2 -357 2 200 2 524 0 720 -1 196 -2 33 -2
-363z"/>
<path d="M453 2940 c0 -261 3 -587 7 -725 6 -224 6 -203 7 200 0 248 -3 574
-6 725 -7 253 -7 238 -8 -200z"/>
<path d="M7620 3048 c-11 -12 -20 -30 -20 -39 0 -17 53 -69 71 -69 19 0 59 49
59 73 0 53 -72 76 -110 35z"/>
<path d="M6431 2529 c-22 -36 -25 -42 -155 -394 -85 -227 -118 -289 -164 -310
-42 -19 -21 -25 83 -25 100 0 134 10 80 24 -40 10 -48 37 -29 108 9 35 22 78
29 96 l14 32 124 0 125 0 15 -37 c23 -59 47 -144 47 -170 0 -16 -9 -27 -27
-36 -26 -11 -22 -12 45 -15 39 -2 105 -2 145 0 l72 3 -42 24 c-39 22 -45 33
-99 160 -31 75 -93 228 -137 341 -43 113 -85 211 -92 219 -12 12 -17 9 -34
-20z m8 -192 c11 -35 34 -99 51 -142 16 -44 30 -83 30 -87 0 -5 -47 -8 -105
-8 -58 0 -105 4 -105 9 0 8 65 201 89 264 6 15 12 27 15 27 2 0 13 -28 25 -63z"/>
<path d="M3816 2528 c-8 -13 -60 -149 -116 -303 -117 -323 -140 -370 -194
-405 l-39 -25 84 -3 c46 -2 100 0 119 3 l35 7 -30 12 c-58 25 -60 35 -31 138
15 51 29 95 32 98 3 3 61 6 129 8 l123 4 30 -81 c17 -44 34 -96 38 -115 6 -34
4 -37 -26 -50 -25 -10 -29 -14 -15 -20 24 -9 243 -7 249 2 3 5 -8 16 -25 26
-38 23 -65 78 -182 371 -151 380 -151 380 -181 333z m53 -300 l49 -128 -109 0
c-60 0 -109 4 -109 9 0 11 67 204 87 251 18 41 10 54 82 -132z"/>
<path d="M2131 2523 c-5 -10 -57 -151 -116 -313 -59 -162 -112 -304 -117 -315
-18 -35 -71 -85 -91 -85 -10 0 -15 -4 -12 -10 3 -6 52 -10 110 -10 58 0 107 4
110 10 3 6 -2 10 -13 10 -10 0 -29 11 -41 24 l-23 25 26 91 c14 50 26 93 26
96 0 2 59 3 132 2 l132 -3 32 -90 c40 -110 41 -122 9 -137 -47 -21 -25 -28 89
-28 139 0 159 5 117 31 -16 10 -37 29 -46 42 -8 13 -66 152 -128 308 -63 156
-124 303 -136 327 -23 44 -44 53 -60 25z m83 -365 l25 -68 -109 0 c-83 0 -110
3 -110 13 0 14 86 263 97 280 6 10 25 -36 97 -225z"/>
<path d="M2692 2534 c-8 -4 -1 -12 20 -23 23 -11 35 -25 39 -46 4 -16 7 -161
8 -322 l1 -292 -26 -20 c-15 -12 -33 -21 -41 -21 -8 0 -11 -4 -8 -10 8 -12
254 -13 274 -1 10 7 6 11 -17 16 -52 11 -57 25 -60 177 l-4 138 31 0 c35 0 52
-19 158 -174 86 -125 120 -154 205 -168 35 -6 73 -8 84 -4 16 6 13 10 -21 25
-57 26 -101 80 -215 260 l-50 81 33 14 c52 21 115 100 123 152 13 92 -18 159
-92 195 -44 21 -63 23 -239 26 -104 1 -196 0 -203 -3z m309 -34 c127 -35 148
-253 30 -314 -15 -8 -55 -18 -89 -22 l-62 -7 0 177 0 176 43 0 c23 0 58 -5 78
-10z"/>
<path d="M4340 2533 c0 -5 18 -16 40 -25 25 -10 44 -26 50 -43 6 -15 10 -148
10 -321 0 -281 -1 -295 -20 -314 -11 -11 -26 -20 -32 -21 -7 0 -4 -4 7 -9 24
-10 133 -11 158 -1 17 6 16 8 -8 21 -15 8 -31 23 -38 35 -14 26 -32 488 -19
511 7 13 33 -13 138 -137 177 -213 362 -427 374 -434 13 -8 11 -36 19 347 l6
326 24 26 c14 14 31 26 38 26 8 0 11 5 8 10 -4 6 -53 10 -116 10 -66 0 -109
-4 -109 -10 0 -5 9 -10 19 -10 11 0 32 -10 46 -22 35 -32 45 -101 45 -328 l-1
-185 -40 45 c-23 25 -127 150 -232 277 l-192 233 -87 0 c-49 0 -88 -3 -88 -7z"/>
<path d="M5280 2531 c0 -6 6 -11 13 -11 8 0 22 -9 33 -21 18 -19 19 -43 23
-296 4 -340 2 -357 -47 -383 l-37 -20 225 3 225 2 60 29 c155 77 236 236 208
415 -19 125 -73 199 -185 258 -53 28 -54 28 -285 31 -162 3 -233 0 -233 -7z
m415 -52 c59 -30 113 -96 140 -172 26 -68 27 -210 3 -288 -21 -67 -85 -144
-143 -170 -54 -25 -186 -26 -206 -2 -11 13 -15 84 -17 341 l-3 324 88 -3 c71
-3 99 -9 138 -30z"/>
<path d="M3375 1301 c-706 -5 -507 -7 1054 -9 1058 -1 1922 0 1920 3 -8 8
-2078 12 -2974 6z"/>
<path d="M4062 953 c-32 -32 -35 -38 -18 -41 12 -3 33 11 60 37 38 38 39 41
17 41 -13 0 -38 -15 -59 -37z"/>
<path d="M5098 866 c-95 -34 -122 -75 -122 -186 -1 -121 50 -187 155 -205 81
-14 179 42 199 113 14 52 12 137 -4 175 -17 43 -76 93 -123 106 -48 14 -59 13
-105 -3z m128 -61 c56 -35 73 -181 28 -242 -48 -64 -168 -48 -207 27 -25 48
-19 148 9 187 36 49 115 61 170 28z"/>
<path d="M5770 871 c-105 -22 -160 -91 -160 -201 0 -136 96 -213 241 -194 78
10 83 19 87 123 l4 91 -76 0 c-68 0 -76 -2 -76 -19 0 -21 19 -31 61 -31 28 0
29 -1 29 -54 l0 -53 -40 -7 c-103 -16 -170 42 -170 149 0 54 19 95 57 125 25
19 38 21 113 18 73 -3 85 -1 88 14 2 9 -5 21 -15 26 -27 14 -103 21 -143 13z"/>
<path d="M2542 850 c-87 -53 -57 -149 63 -200 89 -38 107 -71 59 -109 -30 -24
-72 -26 -127 -7 -41 15 -49 11 -40 -22 11 -45 148 -54 203 -14 41 30 54 68 41
113 -10 33 -21 43 -96 83 -91 51 -109 74 -78 108 16 18 25 20 91 14 67 -6 72
-5 72 13 0 42 -130 56 -188 21z"/>
<path d="M3454 851 c-115 -52 -148 -219 -63 -316 67 -76 249 -86 249 -14 0 15
-5 18 -22 15 -73 -15 -100 -16 -131 -3 -99 42 -114 175 -29 255 34 33 38 34
105 30 74 -3 91 6 62 36 -23 23 -118 21 -171 -3z"/>
<path d="M3964 852 c-73 -46 -106 -135 -84 -229 30 -137 162 -191 287 -118 56
33 78 89 71 183 -9 125 -57 175 -173 180 -56 2 -76 -1 -101 -16z m176 -60 c53
-53 62 -151 20 -220 -38 -62 -155 -66 -195 -6 -9 14 -21 49 -27 77 -23 110 25
177 125 177 40 0 54 -5 77 -28z"/>
<path d="M4525 858 c-3 -8 -4 -95 -3 -193 l3 -180 105 -3 c107 -2 150 8 120
28 -8 5 -36 10 -61 10 -26 0 -60 3 -78 6 l-31 6 -2 167 c-3 164 -3 166 -26
169 -12 2 -24 -3 -27 -10z"/>
<path d="M6326 848 c-13 -21 -136 -350 -136 -364 0 -3 10 -4 23 -2 15 2 29 18
47 55 l25 53 78 0 77 0 25 -55 c20 -46 28 -55 49 -55 15 0 26 2 26 4 0 7 -131
349 -141 368 -14 25 -55 23 -73 -4z m91 -204 c-8 -8 -97 -7 -105 1 -3 3 2 29
12 58 40 113 35 111 68 24 17 -43 28 -81 25 -83z"/>
<path d="M1970 716 c0 -79 3 -164 6 -190 6 -40 10 -46 30 -46 23 0 24 3 24 70
l0 70 43 0 c58 1 122 32 141 69 27 51 21 98 -18 137 -34 34 -34 34 -130 34
l-96 0 0 -144z m182 77 c21 -19 24 -71 4 -98 -10 -14 -27 -19 -67 -20 l-54 0
-3 68 -3 67 52 0 c35 0 59 -6 71 -17z"/>
<path d="M3020 670 l0 -190 25 0 25 0 0 190 0 190 -25 0 -25 0 0 -190z"/>
</g>
</svg>
