<?xml version="1.0" standalone="no"?>
<!DOCTYPE svg PUBLIC "-//W3C//DTD SVG 20010904//EN"
 "http://www.w3.org/TR/2001/REC-SVG-20010904/DTD/svg10.dtd">
<svg version="1.0" xmlns="http://www.w3.org/2000/svg"
 width="833.000000pt" height="476.000000pt" viewBox="0 0 833.000000 476.000000"
 preserveAspectRatio="xMidYMid meet">

<g transform="translate(0.000000,476.000000) scale(0.100000,-0.100000)"
fill="#000000" stroke="none">
<path d="M1813 4471 c-523 -4 -955 -9 -959 -13 -4 -5 1030 -8 2298 -8 1267 0
2779 3 3359 8 863 6 989 8 694 13 -437 8 -4073 7 -5392 0z"/>
<path d="M1910 4100 c-20 -20 -40 -61 -40 -82 0 -6 15 1 34 16 19 14 38 26 43
26 4 0 36 -14 69 -32 54 -28 65 -31 87 -21 24 11 67 77 67 103 0 7 -14 0 -31
-14 -38 -32 -47 -32 -109 -1 -60 30 -93 32 -120 5z"/>
<path d="M6136 3918 c-8 -13 -58 -140 -110 -283 -136 -367 -158 -413 -212
-437 -13 -6 -24 -15 -24 -20 0 -11 169 -9 195 2 15 6 16 9 4 9 -25 1 -49 34
-49 67 0 16 12 64 26 106 l26 78 61 0 c34 0 92 -3 128 -6 l66 -7 32 -96 c37
-114 37 -116 11 -134 -21 -14 -21 -14 2 -21 39 -10 228 -7 228 4 0 6 -4 10 -8
10 -4 0 -22 12 -40 28 -27 23 -50 74 -142 312 -136 351 -161 410 -171 410 -5
0 -15 -10 -23 -22z m38 -290 c26 -69 46 -131 46 -137 0 -7 -33 -11 -101 -11
l-101 0 6 33 c13 69 89 269 97 255 4 -8 28 -71 53 -140z"/>
<path d="M7120 3918 c-25 -14 -60 -44 -77 -67 -29 -38 -33 -50 -33 -107 0
-105 22 -133 170 -214 131 -72 162 -103 168 -173 9 -106 -47 -164 -147 -155
-67 7 -114 44 -160 129 l-36 64 -8 -55 c-4 -30 -5 -74 -2 -97 8 -53 32 -63
167 -70 132 -8 161 0 218 53 59 55 80 97 80 159 0 96 -37 138 -210 236 -134
76 -153 99 -147 177 3 37 10 59 27 77 70 74 178 42 243 -74 l32 -56 3 55 c4
73 -5 116 -26 125 -9 4 -62 10 -117 12 -92 4 -104 3 -145 -19z"/>
<path d="M1995 3901 c-8 -17 -60 -153 -116 -303 -124 -339 -142 -376 -194
-405 l-40 -23 114 0 c114 0 122 3 79 24 -32 16 -34 58 -8 156 l22 80 130 0
129 0 20 -44 c10 -24 27 -74 36 -111 l18 -66 -25 -19 -25 -20 128 0 c70 0 127
3 127 8 0 4 -13 15 -29 24 -39 22 -58 62 -191 394 -62 153 -117 291 -123 307
-15 35 -33 34 -52 -2z m43 -261 c28 -74 53 -143 57 -152 7 -17 -2 -18 -109
-18 l-115 0 45 128 c26 70 51 140 56 155 6 15 12 27 13 25 2 -2 26 -64 53
-138z"/>
<path d="M5125 3897 l40 -35 0 -298 c0 -307 -5 -354 -41 -368 -8 -3 -14 -10
-14 -16 0 -7 86 -10 254 -10 l253 0 13 92 c7 51 15 98 17 105 3 7 1 13 -4 13
-6 0 -21 -21 -36 -47 -52 -96 -95 -123 -207 -130 -118 -8 -114 -21 -118 354
l-4 303 32 30 32 30 -95 0 c-52 0 -110 3 -128 6 l-34 6 40 -35z"/>
<path d="M987 3913 c-18 -4 -17 -7 4 -29 21 -23 24 -38 30 -152 9 -165 11
-437 3 -485 -6 -30 -14 -42 -43 -57 l-36 -19 140 0 c144 0 146 0 88 35 -16 10
-18 26 -18 140 l0 129 75 3 c100 4 164 26 210 72 37 37 80 130 80 173 0 40
-20 96 -47 127 -50 60 -69 64 -278 67 -104 1 -198 -1 -208 -4z m267 -33 c71
-11 111 -44 127 -104 15 -56 7 -144 -17 -192 -24 -46 -89 -84 -146 -84 -61 0
-67 18 -68 210 0 91 -1 168 0 173 0 10 33 9 104 -3z"/>
<path d="M2540 3915 c0 -2 16 -11 35 -19 21 -9 39 -26 45 -41 13 -34 13 -506
0 -576 -8 -42 -17 -60 -42 -81 l-32 -28 102 0 c56 0 102 3 102 8 0 4 -15 14
-33 22 -29 14 -33 20 -38 75 -4 33 -7 157 -8 275 -1 182 1 212 13 200 7 -8 68
-140 136 -292 67 -153 128 -282 135 -288 16 -13 21 -3 161 340 87 213 110 260
115 240 4 -14 7 -141 8 -283 l1 -258 -42 -19 -43 -19 145 0 c127 0 143 2 125
14 -59 41 -55 28 -65 220 -11 215 -13 446 -2 461 4 6 23 21 42 33 l35 21 -96
0 -97 0 -118 -295 c-65 -162 -121 -295 -125 -295 -3 0 -64 132 -136 293 l-130
292 -96 3 c-53 1 -97 0 -97 -3z"/>
<path d="M3640 3902 c24 -12 37 -26 41 -47 9 -39 9 -581 0 -620 -3 -16 -16
-34 -29 -41 -19 -9 -10 -12 60 -17 46 -4 165 -7 264 -7 151 0 183 3 187 15 10
24 20 170 12 163 -4 -4 -22 -29 -39 -55 -43 -66 -80 -84 -179 -90 -78 -5 -85
-4 -112 20 l-30 25 0 144 0 143 80 -3 c87 -4 117 -20 129 -68 13 -51 26 -10
26 81 0 89 -11 128 -25 85 -14 -43 -52 -60 -136 -60 l-79 0 0 160 0 160 73 0
c129 0 156 -16 221 -131 26 -46 30 -25 16 76 l-12 85 -252 0 c-244 -1 -250 -1
-216 -18z"/>
<path d="M4403 3898 l37 -22 0 -321 c0 -274 -2 -324 -16 -343 -8 -12 -23 -22
-32 -22 -15 0 -15 -2 -2 -10 9 -6 119 -10 261 -10 l245 0 13 92 c7 51 15 98
18 105 3 7 0 13 -6 13 -6 0 -22 -22 -35 -48 -46 -90 -115 -132 -219 -132 -61
0 -84 12 -92 51 -4 16 -7 164 -7 327 0 289 1 297 21 313 12 10 21 20 21 23 0
3 -55 6 -122 6 l-123 0 38 -22z"/>
<path d="M8035 3210 c0 -382 1 -539 2 -347 2 191 2 503 0 695 -1 191 -2 34 -2
-348z"/>
<path d="M363 3390 c0 -201 3 -554 6 -785 l7 -420 1 600 c0 330 -3 683 -6 785
-6 158 -7 131 -8 -180z"/>
<path d="M7547 3279 c-32 -25 -35 -61 -7 -89 41 -41 100 -13 100 47 0 52 -51
76 -93 42z"/>
<path d="M6356 2761 c-9 -10 -68 -154 -130 -319 -62 -165 -125 -319 -140 -342
-15 -23 -41 -47 -57 -54 -16 -7 -26 -15 -22 -19 10 -11 196 -8 213 3 12 8 11
10 -6 10 -20 0 -64 38 -64 56 0 5 12 48 26 97 l27 87 127 0 128 0 21 -57 c45
-125 47 -183 5 -183 -8 0 -14 -4 -14 -10 0 -6 52 -10 135 -10 123 0 166 9 117
24 -51 16 -77 71 -239 491 -47 121 -90 226 -97 233 -10 10 -16 9 -30 -7z m38
-301 c32 -90 41 -127 33 -132 -7 -4 -54 -8 -104 -8 -73 0 -93 3 -93 14 0 14
86 261 97 279 8 13 9 11 67 -153z"/>
<path d="M2056 2748 c-8 -13 -64 -160 -126 -328 -62 -168 -123 -320 -137 -339
-14 -18 -39 -39 -54 -45 -46 -19 -24 -26 82 -26 92 0 133 11 90 25 -10 3 -26
14 -36 25 -17 19 -17 23 5 105 13 47 28 91 34 99 9 12 34 13 136 8 l125 -7 34
-99 34 -99 -27 -22 c-14 -12 -23 -24 -20 -28 9 -9 201 -7 233 2 22 6 22 7 -15
31 -37 24 -44 38 -169 350 -138 343 -150 370 -165 370 -5 0 -16 -10 -24 -22z
m46 -283 l55 -145 -108 0 c-60 0 -109 3 -109 8 -1 16 94 282 100 282 4 0 32
-65 62 -145z"/>
<path d="M3736 2743 c-7 -16 -60 -154 -116 -308 -56 -154 -110 -296 -120 -315
-19 -36 -50 -69 -85 -88 -16 -9 5 -11 93 -12 73 0 111 4 107 10 -3 6 -12 10
-19 10 -19 0 -46 34 -46 58 0 11 11 57 25 101 l26 81 127 0 127 0 29 -77 c36
-96 40 -156 11 -161 -11 -2 -24 -8 -30 -13 -5 -5 47 -9 130 -9 l140 0 -37 33
c-46 40 -38 24 -179 375 -146 362 -152 374 -183 315z m53 -282 c28 -74 51
-136 51 -138 0 -1 -50 -3 -111 -3 -87 0 -110 3 -106 13 3 7 21 60 40 117 50
150 57 164 66 154 5 -5 32 -69 60 -143z"/>
<path d="M4300 2761 l-35 -7 37 -16 c20 -9 42 -27 50 -40 15 -27 24 -419 13
-555 -7 -80 -8 -84 -38 -101 l-32 -17 53 -3 c28 -2 76 -2 105 0 l52 3 -33 18
c-18 10 -38 30 -44 45 -15 37 -24 512 -10 512 6 0 39 -35 74 -77 84 -103 340
-406 393 -465 l42 -47 7 46 c3 25 6 148 7 272 0 124 4 259 8 300 6 67 10 77
40 101 l32 27 -32 7 c-40 8 -103 8 -152 -1 l-38 -6 38 -21 c28 -16 42 -32 51
-61 16 -48 30 -449 16 -458 -10 -5 -76 71 -319 371 l-148 182 -51 -1 c-28 -1
-67 -5 -86 -8z"/>
<path d="M5216 2764 c-16 -5 -14 -8 12 -24 41 -25 44 -49 40 -381 -3 -256 -4
-279 -22 -298 -11 -12 -27 -21 -38 -21 -10 0 -18 -5 -18 -11 0 -9 60 -10 218
-7 l218 4 66 31 c84 39 142 97 181 181 29 61 32 76 32 162 0 110 -12 158 -57
224 -32 49 -104 103 -166 124 -35 12 -433 25 -466 16z m386 -52 c58 -26 120
-96 148 -168 48 -121 28 -314 -42 -398 -50 -61 -109 -89 -197 -93 -42 -2 -82
0 -89 5 -26 17 -32 89 -32 386 l0 299 85 -6 c49 -4 103 -14 127 -25z"/>
<path d="M2610 2752 c0 -4 13 -13 29 -20 40 -18 43 -38 39 -382 l-3 -284 -32
-22 c-31 -21 -32 -22 -10 -28 30 -8 194 -5 232 4 l30 7 -27 7 c-55 16 -62 35
-66 187 l-4 139 24 0 c34 0 65 -31 138 -141 130 -193 164 -216 308 -210 26 1
30 21 4 21 -41 0 -91 52 -180 188 -51 77 -92 144 -92 150 0 5 13 15 30 22 34
14 97 80 110 116 6 14 10 49 10 78 0 85 -56 150 -141 167 -55 10 -399 12 -399
1z m340 -40 c53 -26 82 -90 78 -169 -6 -104 -61 -153 -170 -153 l-58 0 0 170
0 170 58 0 c34 0 71 -7 92 -18z"/>
<path d="M2840 1520 c-307 -4 -119 -6 575 -6 567 -1 1422 2 1900 5 793 6 742
7 -575 7 -795 -1 -1650 -3 -1900 -6z"/>
<path d="M3980 1174 c-53 -60 -9 -59 50 1 l34 35 -26 0 c-17 0 -37 -12 -58
-36z"/>
<path d="M3440 1092 c-54 -7 -90 -25 -124 -62 -61 -68 -71 -168 -24 -251 29
-53 91 -82 173 -83 66 -1 95 13 95 45 0 17 -5 18 -42 13 -24 -3 -48 -7 -55 -9
-25 -8 -83 17 -107 46 -51 61 -43 154 20 217 32 32 37 33 97 31 74 -3 91 4 77
31 -10 18 -59 28 -110 22z"/>
<path d="M3919 1090 c-131 -39 -171 -247 -67 -347 90 -86 266 -47 298 65 13
49 13 126 -2 174 -25 85 -135 137 -229 108z m141 -75 c57 -54 60 -175 7 -233
-55 -59 -154 -48 -191 23 -27 53 -29 149 -3 189 40 60 135 71 187 21z"/>
<path d="M4995 1082 c-58 -28 -84 -61 -97 -125 -17 -79 0 -159 42 -202 56 -57
154 -71 230 -32 57 29 80 68 87 155 5 60 2 77 -17 117 -43 89 -157 129 -245
87z m157 -58 c65 -58 63 -211 -3 -258 -28 -19 -103 -21 -139 -3 -60 30 -81
162 -37 228 12 18 34 40 47 47 33 17 105 9 132 -14z"/>
<path d="M5670 1091 c-55 -17 -90 -43 -114 -84 -69 -117 -25 -260 91 -295 70
-21 175 -10 195 20 4 7 8 53 8 101 l0 88 -72 -3 c-65 -3 -73 -5 -73 -23 0 -17
8 -20 48 -23 l47 -3 0 -37 c0 -73 -7 -82 -62 -82 -73 0 -117 24 -140 78 -35
79 -2 179 69 208 27 12 54 14 106 9 68 -7 69 -7 65 16 -2 15 -12 26 -28 30
-33 9 -109 9 -140 0z"/>
<path d="M2474 1080 c-30 -12 -64 -58 -64 -87 0 -51 28 -83 107 -120 93 -46
111 -73 70 -109 -33 -28 -75 -31 -136 -9 -40 14 -41 14 -41 -9 0 -32 20 -46
76 -52 106 -13 174 31 174 111 0 48 -19 70 -90 105 -100 50 -120 79 -80 115
17 15 30 17 91 11 65 -7 70 -6 67 11 -2 9 -14 23 -28 30 -28 14 -114 16 -146
3z"/>
<path d="M2947 1083 c-4 -3 -7 -91 -7 -195 l0 -188 25 0 25 0 0 189 c0 163 -2
190 -16 195 -19 7 -19 7 -27 -1z"/>
<path d="M4440 901 l0 -191 115 0 c90 0 115 3 115 14 0 14 -60 26 -131 26
l-39 0 -2 168 -3 167 -27 3 -28 3 0 -190z"/>
<path d="M6243 1079 c-4 -7 -38 -92 -74 -189 -45 -119 -63 -177 -55 -182 18
-12 49 16 65 60 13 37 19 42 47 42 17 0 52 3 78 6 l46 7 25 -57 c21 -47 29
-56 51 -56 30 0 34 -15 -51 210 -61 160 -64 165 -93 168 -17 2 -34 -3 -39 -9z
m65 -132 c31 -84 30 -87 -27 -87 -28 0 -52 4 -55 9 -5 7 11 63 39 140 8 20 18
5 43 -62z"/>
<path d="M1890 891 l0 -191 30 0 30 0 0 70 0 70 43 0 c24 0 62 10 87 23 75 37
91 120 36 184 -23 27 -29 28 -125 31 l-101 4 0 -191z m180 119 c48 -48 4 -120
-75 -120 l-45 0 0 70 0 70 50 0 c37 0 55 -5 70 -20z"/>
</g>
</svg>
